<?xml version="1.0" encoding="UTF-8"?>
<svg version="1.1" xmlns="http://www.w3.org/2000/svg" width="150" height="150">
<path d="M0 0 C49.5 0 99 0 150 0 C150 49.5 150 99 150 150 C100.5 150 51 150 0 150 C0 100.5 0 51 0 0 Z " fill="#F5F5F5" transform="translate(0,0)"/>
<path d="M0 0 C0 0.66 0 1.32 0 2 C3.4019487 4.09350689 6.05272412 4.17942163 10 4 C10.5878125 5.6396875 10.5878125 5.6396875 11.1875 7.3125 C13.28359696 12.18053826 16.45418203 13.37572736 21.25 15.3125 C24 17 24 17 25 19.5625 C25 24.20610436 24.07672372 28.49733719 23 33 C22.34 33 21.68 33 21 33 C21 33.66 21 34.32 21 35 C18.36 35 15.72 35 13 35 C12.814375 36.5778125 12.814375 36.5778125 12.625 38.1875 C12.08215403 41.49886041 11.28644891 43.94468384 10 47 C9.63128912 48.65919896 9.28718326 50.3247643 9 52 C7.02 52.33 5.04 52.66 3 53 C2.86464844 53.77085938 2.72929688 54.54171875 2.58984375 55.3359375 C1.93548416 58.38439115 1.25089143 61.14081958 0 64 C-3.5 65.375 -3.5 65.375 -7 66 C-8.0064275 67.66279327 -9.00585407 69.32983484 -10 71 C-13.55030156 73.33434204 -16.719005 75 -21 75 C-20.88985461 76.94840455 -20.88985461 76.94840455 -20 79 C-17.69558836 80.3581216 -17.69558836 80.3581216 -14.9375 81.25 C-14.01839844 81.58515625 -13.09929687 81.9203125 -12.15234375 82.265625 C-11.08693359 82.62914063 -11.08693359 82.62914063 -10 83 C-10.33 84.98 -10.66 86.96 -11 89 C-10.01 89 -9.02 89 -8 89 C-7.67 90.65 -7.34 92.3 -7 94 C-6.34 94 -5.68 94 -5 94 C-4.67 93.34 -4.34 92.68 -4 92 C-4 93.32 -4 94.64 -4 96 C-1.92022703 94.77409808 -1.92022703 94.77409808 0 93 C0 91.68 0 90.36 0 89 C1.65 89 3.3 89 5 89 C5.309375 89.78375 5.61875 90.5675 5.9375 91.375 C6.92875038 93.92330128 6.92875038 93.92330128 8 96 C6.35 95.34 4.7 94.68 3 94 C2.67 95.65 2.34 97.3 2 99 C3.98 99.99 3.98 99.99 6 101 C5.38169051 106.02474293 3.87023224 110.24720494 1.9375 114.875 C1.65583984 115.56335938 1.37417969 116.25171875 1.08398438 116.9609375 C0.39484734 118.64289909 -0.30180798 120.32177697 -1 122 C-3.38564077 121.42415568 -5.66682784 120.77772405 -8 120 C-8.33 126.93 -8.66 133.86 -9 141 C-35.4 141 -61.8 141 -89 141 C-89 111.3 -89 81.6 -89 51 C-83.35590541 49.11863514 -76.73055582 49.47185178 -71 51 C-70.73832031 50.40445313 -70.47664063 49.80890625 -70.20703125 49.1953125 C-68.93192773 46.87619218 -67.69686616 45.57694651 -65.6875 43.875 C-65.11386719 43.37742188 -64.54023437 42.87984375 -63.94921875 42.3671875 C-62 41 -62 41 -59.4921875 40.1640625 C-56.12527803 38.5914308 -55.22773441 36.72325267 -53.4375 33.5 C-52.53064453 31.87384766 -52.53064453 31.87384766 -51.60546875 30.21484375 C-50.25193792 27.50448883 -49.21316248 24.92379732 -48.25 22.0625 C-44.61032811 12.30943984 -34.64868187 1.49055798 -25.5 -3.3125 C-15.77870283 -5.98585672 -8.56151816 -4.89554895 0 0 Z " fill="#7E7E7E" transform="translate(89,9)"/>
<path d="M0 0 C0.58523437 0.22042969 1.17046875 0.44085938 1.7734375 0.66796875 C1.54785156 1.29316406 1.32226562 1.91835938 1.08984375 2.5625 C0.53918189 7.9671442 2.85374721 12.85612233 4.59179688 17.92382812 C7.05179593 25.49970342 7.85409907 32.86548788 5.7734375 40.66796875 C7.4234375 39.34796875 9.0734375 38.02796875 10.7734375 36.66796875 C11.7634375 37.16296875 11.7634375 37.16296875 12.7734375 37.66796875 C12.4434375 39.64796875 12.1134375 41.62796875 11.7734375 43.66796875 C10.7834375 43.66796875 9.7934375 43.66796875 8.7734375 43.66796875 C9.2684375 49.11296875 9.2684375 49.11296875 9.7734375 54.66796875 C10.7634375 54.66796875 11.7534375 54.66796875 12.7734375 54.66796875 C12.2784375 55.65796875 12.2784375 55.65796875 11.7734375 56.66796875 C11.70393209 58.20820871 11.68891393 59.75131863 11.7109375 61.29296875 C11.71996094 62.11023438 11.72898438 62.9275 11.73828125 63.76953125 C11.74988281 64.39601563 11.76148438 65.0225 11.7734375 65.66796875 C12.3715625 65.17296875 12.9696875 64.67796875 13.5859375 64.16796875 C15.7734375 62.66796875 15.7734375 62.66796875 18.7734375 62.66796875 C19.4334375 63.98796875 20.0934375 65.30796875 20.7734375 66.66796875 C21.7634375 66.33796875 22.7534375 66.00796875 23.7734375 65.66796875 C24.1034375 65.00796875 24.4334375 64.34796875 24.7734375 63.66796875 C25.7634375 64.16296875 25.7634375 64.16296875 26.7734375 64.66796875 C26.7734375 65.65796875 26.7734375 66.64796875 26.7734375 67.66796875 C26.1134375 68.32796875 25.4534375 68.98796875 24.7734375 69.66796875 C25.8665625 70.28671875 26.9596875 70.90546875 28.0859375 71.54296875 C30.3896631 72.84696437 32.56505799 74.19571574 34.7734375 75.66796875 C34.37540189 78.55372694 33.98334681 79.48986388 31.7109375 81.41796875 C31.0715625 81.83046875 30.4321875 82.24296875 29.7734375 82.66796875 C29.4434375 82.00796875 29.1134375 81.34796875 28.7734375 80.66796875 C28.4434375 82.97796875 28.1134375 85.28796875 27.7734375 87.66796875 C28.7634375 87.00796875 29.7534375 86.34796875 30.7734375 85.66796875 C31.1034375 87.31796875 31.4334375 88.96796875 31.7734375 90.66796875 C32.1034375 90.66796875 32.4334375 90.66796875 32.7734375 90.66796875 C32.7734375 93.63796875 32.7734375 96.60796875 32.7734375 99.66796875 C12.3134375 99.66796875 -8.1465625 99.66796875 -29.2265625 99.66796875 C-29.2265625 69.96796875 -29.2265625 40.26796875 -29.2265625 9.66796875 C-23.58246791 7.78660389 -16.95711832 8.13982053 -11.2265625 9.66796875 C-10.83597656 8.78044922 -10.83597656 8.78044922 -10.4375 7.875 C-9.1495972 5.52769329 -7.85432072 4.11772107 -5.8515625 2.35546875 C-5.26632813 1.82308594 -4.68109375 1.29070313 -4.078125 0.7421875 C-2.2265625 -0.33203125 -2.2265625 -0.33203125 0 0 Z " fill="#0B0B0B" transform="translate(29.2265625,50.33203125)"/>
<path d="M0 0 C0.33 0.66 0.66 1.32 1 2 C1.99 1.67 2.98 1.34 4 1 C4 1.99 4 2.98 4 4 C4.66 4 5.32 4 6 4 C6 5.32 6 6.64 6 8 C6.474375 7.484375 6.94875 6.96875 7.4375 6.4375 C11.30997616 4.26513533 14.75229924 5.24666846 19 6 C19 6.66 19 7.32 19 8 C18.34 8.66 17.68 9.32 17 10 C17 10.66 17 11.32 17 12 C15.0625 11.625 15.0625 11.625 13 11 C12.67 10.34 12.34 9.68 12 9 C11.01 9.495 11.01 9.495 10 10 C10 10.66 10 11.32 10 12 C11.32 12.66 12.64 13.32 14 14 C13.67 15.32 13.34 16.64 13 18 C12.01 18 11.02 18 10 18 C10.33 18.99 10.66 19.98 11 21 C11.66 21 12.32 21 13 21 C13 20.34 13 19.68 13 19 C22.57668161 16.47802691 22.57668161 16.47802691 26.06640625 17.7578125 C27.6875 18.875 27.6875 18.875 30 21 C30.495 19.515 30.495 19.515 31 18 C30.01 18 29.02 18 28 18 C28 17.34 28 16.68 28 16 C27.34 16 26.68 16 26 16 C26 15.34 26 14.68 26 14 C28.5 12.375 28.5 12.375 31 11 C30.34 12.65 29.68 14.3 29 16 C31.475 16.99 31.475 16.99 34 18 C34 19.32 34 20.64 34 22 C33.34 22 32.68 22 32 22 C31.855625 22.886875 31.71125 23.77375 31.5625 24.6875 C29.33428383 29.41131828 25.75194878 31.08566769 21 33 C20.01 33 19.02 33 18 33 C18.11014539 34.94840455 18.11014539 34.94840455 19 37 C21.30441164 38.3581216 21.30441164 38.3581216 24.0625 39.25 C24.98160156 39.58515625 25.90070313 39.9203125 26.84765625 40.265625 C27.55792969 40.50796875 28.26820312 40.7503125 29 41 C28.67 42.98 28.34 44.96 28 47 C28.99 47 29.98 47 31 47 C31.495 49.475 31.495 49.475 32 52 C32.66 52 33.32 52 34 52 C34.495 51.01 34.495 51.01 35 50 C35 51.32 35 52.64 35 54 C37.07977297 52.77409808 37.07977297 52.77409808 39 51 C39 49.68 39 48.36 39 47 C40.65 47 42.3 47 44 47 C44.309375 47.78375 44.61875 48.5675 44.9375 49.375 C45.92875038 51.92330128 45.92875038 51.92330128 47 54 C45.35 53.34 43.7 52.68 42 52 C41.67 53.65 41.34 55.3 41 57 C42.32 57.66 43.64 58.32 45 59 C44.38169051 64.02474293 42.87023224 68.24720494 40.9375 72.875 C40.65583984 73.56335938 40.37417969 74.25171875 40.08398438 74.9609375 C39.39484734 76.64289909 38.69819202 78.32177697 38 80 C35.61435923 79.42415568 33.33317216 78.77772405 31 78 C30.67 84.93 30.34 91.86 30 99 C24.06 99 18.12 99 12 99 C11.67 96.36 11.34 93.72 11 91 C10.69830934 89.65915264 10.38482319 88.3193938 10 87 C9.34 87 8.68 87 8 87 C7.01 87.99 7.01 87.99 6 89 C6.11509661 87.58249437 6.24253658 86.16598831 6.375 84.75 C6.44460937 83.96109375 6.51421875 83.1721875 6.5859375 82.359375 C7.01507113 79.914123 7.78600638 78.15163097 9 76 C9.33 77.65 9.66 79.3 10 81 C12.34287418 78.32752366 12.34287418 78.32752366 13 75 C12.0925 74.5875 11.185 74.175 10.25 73.75 C7.20334382 72.10949282 5.28873194 70.55281639 3 68 C3.66 66.68 4.32 65.36 5 64 C4.67 64.33 4.34 64.66 4 65 C2.67479497 65.68268138 1.34187818 66.3507041 0 67 C-0.66 65.35 -1.32 63.7 -2 62 C-5.96 63.98 -5.96 63.98 -10 66 C-10 62.37 -10 58.74 -10 55 C-9.01 54.505 -9.01 54.505 -8 54 C-8.99 54 -9.98 54 -11 54 C-12.6290678 49.20862412 -13.20577428 45.94367454 -12 41 C-11.34 41.33 -10.68 41.66 -10 42 C-9.67 40.35 -9.34 38.7 -9 37 C-10.32 37.66 -11.64 38.32 -13 39 C-11.46601942 33.37540453 -11.46601942 33.37540453 -8.75 31.1875 C-6.74145305 29.19444824 -6.74145305 29.19444824 -7.1875 26.9296875 C-7.74029125 24.60335765 -8.36671959 22.3054718 -9 20 C-9.4954165 15.64033477 -8.38672429 13.62782092 -6 10 C-5.67 9.01 -5.34 8.02 -5 7 C-4.01 6.34 -3.02 5.68 -2 5 C-0.79549696 2.44816596 -0.79549696 2.44816596 0 0 Z " fill="#1B1B1B" transform="translate(50,51)"/>
<path d="M0 0 C27.72 0 55.44 0 84 0 C83.67 1.98 83.34 3.96 83 6 C82.38253906 5.90460937 81.76507813 5.80921875 81.12890625 5.7109375 C71.88164488 4.50048928 64.81997115 5.67781899 57 11 C54.9865143 12.86503837 53.18090764 14.64835103 51.375 16.6875 C50.900625 17.21496826 50.42625 17.74243652 49.9375 18.28588867 C45.2662175 23.61286052 42.2681238 29.04104447 39.5 35.5 C37.31175951 40.60589447 34.96206882 46.03793118 31 50 C30.278125 50.2475 29.55625 50.495 28.8125 50.75 C24.56410853 52.63817399 20.11943938 55.76112124 18 60 C12.06 60 6.12 60 0 60 C0 40.2 0 20.4 0 0 Z " fill="#EEEEEE" transform="translate(0,0)"/>
<path d="M0 0 C0.66 0 1.32 0 2 0 C0.15928649 5.90965915 -2.05117705 11.41437925 -4.66796875 17.01953125 C-6.59349111 21.32795812 -8.237824 25.73201677 -9.88671875 30.15234375 C-11 33 -11 33 -12.10546875 35.17578125 C-13.34436256 37.70225902 -13.62227512 40.23001756 -14 43 C-12.05925139 42.72382467 -12.05925139 42.72382467 -10 42 C-9.34 41.01 -8.68 40.02 -8 39 C-4.8255824 40.09462676 -4.01085843 40.98177335 -2.25 43.9375 C-1 47 -1 47 -1 50 C-1.66 50 -2.32 50 -3 50 C-1.86416568 52.11505905 -1.86416568 52.11505905 0 54 C2.51502421 54.22042252 2.51502421 54.22042252 5.25 53.8125 C10.40317954 53.60174991 10.40317954 53.60174991 13.1015625 55.40234375 C14.83044517 57.20358054 16.41774766 59.06981782 18 61 C20.78547875 63.40564074 22.51580647 64.83860216 26 66 C25.67 65.34 25.34 64.68 25 64 C24.960008 62.00039988 24.95653201 59.99952758 25 58 C25.66 58 26.32 58 27 58 C27 59.32 27 60.64 27 62 C28.65 62 30.3 62 32 62 C32 62.66 32 63.32 32 64 C32.66 64 33.32 64 34 64 C35.625 65.5 35.625 65.5 37 68 C37 70.64 37 73.28 37 76 C14.89 76 -7.22 76 -30 76 C-29.18175528 71.09053165 -28.02421239 66.95390168 -26.25 62.375 C-26.01023437 61.73949219 -25.77046875 61.10398438 -25.5234375 60.44921875 C-23.15738906 54.24139063 -20.57489985 48.12339837 -18 42 C-17.56494141 40.96472168 -17.12988281 39.92944336 -16.68164062 38.86279297 C-11.2116645 25.86858757 -5.70617399 12.89244773 0 0 Z " fill="#6A6A6A" transform="translate(113,74)"/>
<path d="M0 0 C0 0.66 0 1.32 0 2 C0.556875 2.226875 1.11375 2.45375 1.6875 2.6875 C4.70208759 4.39848215 6.74774829 6.372373 9 9 C9 10.32 9 11.64 9 13 C9.66 13 10.32 13 11 13 C11.495 14.98 11.495 14.98 12 17 C13.32 17 14.64 17 16 17 C16.185625 17.9590625 16.185625 17.9590625 16.375 18.9375 C16.684375 19.9584375 16.684375 19.9584375 17 21 C17.66 21.33 18.32 21.66 19 22 C18.34 23.32 17.68 24.64 17 26 C14.69 25.67 12.38 25.34 10 25 C10 24.34 10 23.68 10 23 C9.360625 22.896875 8.72125 22.79375 8.0625 22.6875 C7.381875 22.460625 6.70125 22.23375 6 22 C5.505 20.515 5.505 20.515 5 19 C-0.28 18.34 -5.56 17.68 -11 17 C-11 16.01 -11 15.02 -11 14 C-12.35618499 15.12534105 -12.35618499 15.12534105 -12.0625 18.0625 C-12.041875 19.031875 -12.02125 20.00125 -12 21 C-12.33 21 -12.66 21 -13 21 C-13 19.35 -13 17.7 -13 16 C-14.32 16.33 -15.64 16.66 -17 17 C-17 17.66 -17 18.32 -17 19 C-20.21451269 20.60725635 -23.43612536 20.05748185 -27 20 C-27.66 18.68 -28.32 17.36 -29 16 C-32.68268739 16.49766046 -34.65028767 17.06285959 -37 20 C-37.33 20.66 -37.66 21.32 -38 22 C-38.99 22.33 -39.98 22.66 -41 23 C-42.22520264 26.00847418 -42.22520264 26.00847418 -43 29 C-41.02 28.505 -41.02 28.505 -39 28 C-38.34 31.3 -37.68 34.6 -37 38 C-38.485 37.505 -38.485 37.505 -40 37 C-40.495 34.525 -40.495 34.525 -41 32 C-41.66 32 -42.32 32 -43 32 C-43.12375 32.7425 -43.2475 33.485 -43.375 34.25 C-43.98833516 36.9486747 -44.41690202 38.73843146 -46 41 C-48.95860573 42.69962457 -51.76563526 43.92187842 -55 45 C-55 45.66 -55 46.32 -55 47 C-57 48.625 -57 48.625 -59 50 C-60.09054636 46.33888009 -60.63761779 44.25537897 -58.87109375 40.77734375 C-57.29735188 38.47786628 -55.66085529 36.23715207 -54 34 C-51.56523847 30.24468984 -49.8644268 26.61481601 -48.4375 22.375 C-44.63034816 12.4945345 -34.84486879 1.59355611 -25.5 -3.3125 C-15.77870283 -5.98585672 -8.56151816 -4.89554895 0 0 Z " fill="#464646" transform="translate(89,9)"/>
<path d="M0 0 C0.99 0 1.98 0 3 0 C3 0.99 3 1.98 3 3 C7.29 3.33 11.58 3.66 16 4 C12.5647952 6.29013653 11.014669 6.17842973 7 6 C6.34 7.65 5.68 9.3 5 11 C3.9275 11.12375 2.855 11.2475 1.75 11.375 C-2.44760544 11.988729 -2.44760544 11.988729 -6 14 C-6.76956136 16.34533951 -6.76956136 16.34533951 -7 19 C-7.20625 19.804375 -7.4125 20.60875 -7.625 21.4375 C-8.08803497 24.60157228 -7.88787867 26.92657382 -7 30 C-5.68352881 30.69937532 -4.34977849 31.36729133 -3 32 C-2.125 34.4375 -2.125 34.4375 -2 37 C-2.66 37.99 -3.32 38.98 -4 40 C-4.66 40 -5.32 40 -6 40 C-6 40.66 -6 41.32 -6 42 C-5.40832031 41.79503906 -4.81664062 41.59007812 -4.20703125 41.37890625 C-0.16339184 40.0002429 3.76855249 38.68249153 8 38 C7.34 38.99 6.68 39.98 6 41 C5.34 41 4.68 41 4 41 C3.01 41.33 2.02 41.66 1 42 C1 42.66 1 43.32 1 44 C1.66 44 2.32 44 3 44 C3 44.66 3 45.32 3 46 C3.99 46 4.98 46 6 46 C5.67 47.32 5.34 48.64 5 50 C4.236875 49.319375 3.47375 48.63875 2.6875 47.9375 C-1.84600665 44.82412796 -6.85946973 46.15848971 -12 47 C-12 47.66 -12 48.32 -12 49 C-13.98 49.495 -13.98 49.495 -16 50 C-15.67 48.68 -15.34 47.36 -15 46 C-14.01 46 -13.02 46 -12 46 C-12.49831724 42.31245243 -13.10067643 40.39509338 -16 38 C-15.01 37.34 -14.02 36.68 -13 36 C-12.34 36.33 -11.68 36.66 -11 37 C-11.495 37.99 -11.495 37.99 -12 39 C-10.68 39.33 -9.36 39.66 -8 40 C-8 39.34 -8 38.68 -8 38 C-8.99 37.505 -8.99 37.505 -10 37 C-8.02 36.505 -8.02 36.505 -6 36 C-6 35.34 -6 34.68 -6 34 C-11.50366792 33.67625483 -15.43672206 33.46713966 -20 37 C-19.67 35.35 -19.34 33.7 -19 32 C-19.66 32 -20.32 32 -21 32 C-21.33 31.34 -21.66 30.68 -22 30 C-22.99 29.67 -23.98 29.34 -25 29 C-25.268125 29.804375 -25.53625 30.60875 -25.8125 31.4375 C-26.204375 32.283125 -26.59625 33.12875 -27 34 C-28.485 34.495 -28.485 34.495 -30 35 C-30.12375 35.94875 -30.2475 36.8975 -30.375 37.875 C-31 41 -31 41 -33 43 C-32.64331506 46.63818635 -31.97395226 50.11821669 -31.1875 53.6875 C-31 57 -31 57 -32.75 59 C-33.4925 59.66 -34.235 60.32 -35 61 C-36.19205109 63.28476458 -37.07242766 65.58831191 -38 68 C-38.66 68 -39.32 68 -40 68 C-39.93039063 66.61941406 -39.93039063 66.61941406 -39.859375 65.2109375 C-39.61809255 56.74881717 -40.41178261 50.10656431 -43.125 42.0234375 C-43.95318875 39.16174958 -44.17572949 36.95445205 -44 34 C-42.515 33.505 -42.515 33.505 -41 33 C-41 32.34 -41 31.68 -41 31 C-34.25 27 -34.25 27 -32 27 C-31.87625 26.443125 -31.7525 25.88625 -31.625 25.3125 C-30.94023145 22.77885636 -30.00866237 20.42078968 -29 18 C-28.34 18 -27.68 18 -27 18 C-26.71125 18.804375 -26.4225 19.60875 -26.125 20.4375 C-25.26737432 23.1326468 -25.26737432 23.1326468 -23 24 C-23.33 23.278125 -23.66 22.55625 -24 21.8125 C-25.00603529 18.98302573 -25.16977402 16.97104534 -25 14 C-26.32 14.33 -27.64 14.66 -29 15 C-28.34 12.69 -27.68 10.38 -27 8 C-26.01 8 -25.02 8 -24 8 C-23.731875 7.21625 -23.46375 6.4325 -23.1875 5.625 C-22 3 -22 3 -19 1 C-16.3125 1.375 -16.3125 1.375 -14 2 C-13.67 3.32 -13.34 4.64 -13 6 C-9.7 5.67 -6.4 5.34 -3 5 C-3 4.34 -3 3.68 -3 3 C-4.32 2.67 -5.64 2.34 -7 2 C-4.36 2 -1.72 2 1 2 C0.505 1.505 0.505 1.505 0 1 C0 0.67 0 0.34 0 0 Z " fill="#434343" transform="translate(75,23)"/>
<path d="M0 0 C0.33 0.66 0.66 1.32 1 2 C1.99 1.67 2.98 1.34 4 1 C4 1.99 4 2.98 4 4 C4.66 4 5.32 4 6 4 C6 5.32 6 6.64 6 8 C6.7115625 7.2265625 6.7115625 7.2265625 7.4375 6.4375 C11.30997616 4.26513533 14.75229924 5.24666846 19 6 C19 6.66 19 7.32 19 8 C18.34 8.66 17.68 9.32 17 10 C17 10.66 17 11.32 17 12 C15.0625 11.625 15.0625 11.625 13 11 C12.67 10.34 12.34 9.68 12 9 C11.01 9.495 11.01 9.495 10 10 C10 10.66 10 11.32 10 12 C11.32 12.66 12.64 13.32 14 14 C13.67 15.32 13.34 16.64 13 18 C12.01 18 11.02 18 10 18 C10.33 18.99 10.66 19.98 11 21 C11.66 21 12.32 21 13 21 C13 20.34 13 19.68 13 19 C22.57668161 16.47802691 22.57668161 16.47802691 26.06640625 17.7578125 C27.6875 18.875 27.6875 18.875 30 21 C30.495 19.515 30.495 19.515 31 18 C30.01 18 29.02 18 28 18 C28 17.34 28 16.68 28 16 C27.34 16 26.68 16 26 16 C26 15.34 26 14.68 26 14 C28.5 12.375 28.5 12.375 31 11 C30.34 12.65 29.68 14.3 29 16 C31.475 16.99 31.475 16.99 34 18 C34 19.32 34 20.64 34 22 C33.34 22 32.68 22 32 22 C31.855625 22.886875 31.71125 23.77375 31.5625 24.6875 C29.33428383 29.41131828 25.75194878 31.08566769 21 33 C20.01 33 19.02 33 18 33 C18.11014539 34.94840455 18.11014539 34.94840455 19 37 C21.30441164 38.3581216 21.30441164 38.3581216 24.0625 39.25 C24.98160156 39.58515625 25.90070313 39.9203125 26.84765625 40.265625 C27.55792969 40.50796875 28.26820312 40.7503125 29 41 C28.67 42.98 28.34 44.96 28 47 C28.99 47 29.98 47 31 47 C31.495 49.475 31.495 49.475 32 52 C29.125 52.1875 29.125 52.1875 26 52 C25.34 51.01 24.68 50.02 24 49 C21.525 49.495 21.525 49.495 19 50 C18.67 48.02 18.34 46.04 18 44 C15.03 44.495 15.03 44.495 12 45 C11.67 42.69 11.34 40.38 11 38 C11.99 38 12.98 38 14 38 C13.42618522 34.67187429 12.40619252 33.30157545 10 31 C10 30.34 10 29.68 10 29 C9.01 28.67 8.02 28.34 7 28 C7.33 25.69 7.66 23.38 8 21 C4.7 20.67 1.4 20.34 -2 20 C-2.99 22.97 -3.98 25.94 -5 29 C-7.89170147 24.6624478 -9.67519257 20.26650205 -9 15 C-7.5625 12.375 -7.5625 12.375 -6 10 C-5.67 9.01 -5.34 8.02 -5 7 C-4.01 6.34 -3.02 5.68 -2 5 C-0.79549696 2.44816596 -0.79549696 2.44816596 0 0 Z " fill="#2B2B2B" transform="translate(50,51)"/>
<path d="M0 0 C3.50379587 1.37537991 4.66817384 3.53492274 6.19921875 6.86328125 C6.19921875 8.18328125 6.19921875 9.50328125 6.19921875 10.86328125 C7.84921875 10.20328125 9.49921875 9.54328125 11.19921875 8.86328125 C11.19921875 7.87328125 11.19921875 6.88328125 11.19921875 5.86328125 C10.58046875 5.59515625 9.96171875 5.32703125 9.32421875 5.05078125 C7.19921875 3.86328125 7.19921875 3.86328125 5.19921875 0.86328125 C9.74691663 1.39830453 12.46100027 3.31811122 16.19921875 5.86328125 C18.4252449 6.63267806 18.4252449 6.63267806 20.19921875 6.86328125 C19.70421875 5.87328125 19.70421875 5.87328125 19.19921875 4.86328125 C19.15922675 2.86368113 19.15575076 0.86280883 19.19921875 -1.13671875 C19.85921875 -1.13671875 20.51921875 -1.13671875 21.19921875 -1.13671875 C21.19921875 0.18328125 21.19921875 1.50328125 21.19921875 2.86328125 C22.84921875 2.86328125 24.49921875 2.86328125 26.19921875 2.86328125 C26.19921875 3.52328125 26.19921875 4.18328125 26.19921875 4.86328125 C26.85921875 4.86328125 27.51921875 4.86328125 28.19921875 4.86328125 C29.82421875 6.36328125 29.82421875 6.36328125 31.19921875 8.86328125 C31.19921875 11.50328125 31.19921875 14.14328125 31.19921875 16.86328125 C16.67921875 16.86328125 2.15921875 16.86328125 -12.80078125 16.86328125 C-12.47078125 15.54328125 -12.14078125 14.22328125 -11.80078125 12.86328125 C-11.14078125 12.86328125 -10.48078125 12.86328125 -9.80078125 12.86328125 C-9.11929895 10.97148922 -9.11929895 10.97148922 -8.80078125 8.86328125 C-10.63962006 6.57599391 -10.63962006 6.57599391 -13.42578125 6.73828125 C-14.20953125 6.77953125 -14.99328125 6.82078125 -15.80078125 6.86328125 C-15.80078125 6.20328125 -15.80078125 5.54328125 -15.80078125 4.86328125 C-17.12078125 5.19328125 -18.44078125 5.52328125 -19.80078125 5.86328125 C-19.47078125 4.21328125 -19.14078125 2.56328125 -18.80078125 0.86328125 C-17.70765625 1.21390625 -16.61453125 1.56453125 -15.48828125 1.92578125 C-11.89157752 3.19367579 -11.89157752 3.19367579 -8.80078125 1.86328125 C-8.80078125 1.20328125 -8.80078125 0.54328125 -8.80078125 -0.13671875 C-5.72177014 -1.67622431 -3.2630629 -0.77241586 0 0 Z " fill="#252525" transform="translate(118.80078125,133.13671875)"/>
<path d="M0 0 C2.33294775 -0.04241723 4.66702567 -0.04092937 7 0 C8 1 8 1 8.09765625 2.84765625 C8.06510417 4.8984375 8.03255208 6.94921875 8 9 C7.34 9 6.68 9 6 9 C6 9.66 6 10.32 6 11 C5.01 11.33 4.02 11.66 3 12 C2.5875 12.763125 2.175 13.52625 1.75 14.3125 C0 17 0 17 -3.375 18.5 C-7.42581888 20.53825559 -8.27985792 23.4864116 -9.8125 27.625 C-10.37904297 29.34589844 -10.37904297 29.34589844 -10.95703125 31.1015625 C-12 34 -12 34 -14 36 C-13.64331506 39.63818635 -12.97395226 43.11821669 -12.1875 46.6875 C-12 50 -12 50 -13.75 52 C-14.4925 52.66 -15.235 53.32 -16 54 C-17.19205109 56.28476458 -18.07242766 58.58831191 -19 61 C-19.66 61 -20.32 61 -21 61 C-20.93039063 59.61941406 -20.93039063 59.61941406 -20.859375 58.2109375 C-20.61809255 49.74881717 -21.41178261 43.10656431 -24.125 35.0234375 C-24.95318875 32.16174958 -25.17572949 29.95445205 -25 27 C-24.01 26.67 -23.02 26.34 -22 26 C-22 25.34 -22 24.68 -22 24 C-15.25 20 -15.25 20 -13 20 C-12.87625 19.443125 -12.7525 18.88625 -12.625 18.3125 C-11.94023145 15.77885636 -11.00866237 13.42078968 -10 11 C-9.34 11 -8.68 11 -8 11 C-7.71125 11.804375 -7.4225 12.60875 -7.125 13.4375 C-6.26737432 16.1326468 -6.26737432 16.1326468 -4 17 C-4.09539063 16.39671875 -4.19078125 15.7934375 -4.2890625 15.171875 C-4.39992188 14.37265625 -4.51078125 13.5734375 -4.625 12.75 C-4.79902344 11.56664062 -4.79902344 11.56664062 -4.9765625 10.359375 C-5.00319395 7.67847541 -4.36592084 6.27305911 -3 4 C-2.01 4.33 -1.02 4.66 0 5 C-0.66 5 -1.32 5 -2 5 C-2 5.66 -2 6.32 -2 7 C1.11332248 6.33131686 1.11332248 6.33131686 2.1875 3.9375 C2.455625 3.298125 2.72375 2.65875 3 2 C2.01 1.67 1.02 1.34 0 1 C0 0.67 0 0.34 0 0 Z " fill="#8A8A8A" transform="translate(56,30)"/>
<path d="M0 0 C2 3 2 3 1.625 5.1875 C1.41875 5.785625 1.2125 6.38375 1 7 C0.01 7 -0.98 7 -2 7 C-2.144375 7.804375 -2.28875 8.60875 -2.4375 9.4375 C-3 12 -3 12 -4 13 C-5.66617115 13.04063832 -7.33388095 13.042721 -9 13 C-9 13.99 -9 14.98 -9 16 C-9.99 16 -10.98 16 -12 16 C-11.938125 17.051875 -11.87625 18.10375 -11.8125 19.1875 C-12 23 -12 23 -15 28 C-10.71 28.66 -6.42 29.32 -2 30 C-2 29.01 -2 28.02 -2 27 C-0.68 27.33 0.64 27.66 2 28 C0.125 34.75 0.125 34.75 -1 37 C-1.66 37 -2.32 37 -3 37 C-3.33 37.66 -3.66 38.32 -4 39 C-5.485 38.505 -5.485 38.505 -7 38 C-8.32 38 -9.64 38 -11 38 C-10.67 37.01 -10.34 36.02 -10 35 C-9.34 35 -8.68 35 -8 35 C-8 34.34 -8 33.68 -8 33 C-8.56203125 33.14308594 -9.1240625 33.28617188 -9.703125 33.43359375 C-12.04545453 34.01120902 -14.39417659 34.54283307 -16.75 35.0625 C-17.54921875 35.23910156 -18.3484375 35.41570312 -19.171875 35.59765625 C-20.07679687 35.79681641 -20.07679687 35.79681641 -21 36 C-21 35.34 -21 34.68 -21 34 C-20.484375 33.566875 -19.96875 33.13375 -19.4375 32.6875 C-17.70472037 31.04352175 -17.70472037 31.04352175 -18.125 28.4375 C-18.84389168 25.6738389 -18.84389168 25.6738389 -22 24 C-23.74541235 19.39845834 -24.47589947 16.39449245 -22.875 11.6875 C-21.41708564 8.48888617 -20.3500629 6.4105528 -17 5 C-13.98177569 4.77546082 -11.01965619 4.82578907 -8 5 C-8 4.34 -8 3.68 -8 3 C-6.865625 2.690625 -5.73125 2.38125 -4.5625 2.0625 C-1.21224901 1.37075469 -1.21224901 1.37075469 0 0 Z " fill="#919191" transform="translate(90,29)"/>
<path d="M0 0 C0.33 0.99 0.66 1.98 1 3 C1.6599679 4.66933058 2.32558869 6.3364521 3 8 C2.34 8 1.68 8 1 8 C1.84435463 10.90994674 1.84435463 10.90994674 3.1875 12.9375 C4 15 4 15 3.125 17.25 C2.75375 17.8275 2.3825 18.405 2 19 C3.32 18.67 4.64 18.34 6 18 C6 18.66 6 19.32 6 20 C7.65 19.67 9.3 19.34 11 19 C11.99 20.32 12.98 21.64 14 23 C13.34 24.32 12.68 25.64 12 27 C11.34 26.67 10.68 26.34 10 26 C9.67 27.32 9.34 28.64 9 30 C1.41 30 -6.18 30 -14 30 C-12.87388912 23.24333474 -12.87388912 23.24333474 -11.6953125 20.125 C-11.44136719 19.44953125 -11.18742187 18.7740625 -10.92578125 18.078125 C-10.66152344 17.39234375 -10.39726563 16.7065625 -10.125 16 C-9.74021484 14.97132813 -9.74021484 14.97132813 -9.34765625 13.921875 C-5.07722076 2.67711019 -5.07722076 2.67711019 -1.8125 0.625 C-1.214375 0.41875 -0.61625 0.2125 0 0 Z " fill="#2F2F2F" transform="translate(97,120)"/>
<path d="M0 0 C0.33 0.66 0.66 1.32 1 2 C1.99 1.67 2.98 1.34 4 1 C4 1.99 4 2.98 4 4 C4.66 4 5.32 4 6 4 C6 5.32 6 6.64 6 8 C6.7115625 7.2265625 6.7115625 7.2265625 7.4375 6.4375 C11.30997616 4.26513533 14.75229924 5.24666846 19 6 C19 6.66 19 7.32 19 8 C18.34 8.66 17.68 9.32 17 10 C17 10.66 17 11.32 17 12 C15.0625 11.625 15.0625 11.625 13 11 C12.67 10.34 12.34 9.68 12 9 C11.01 9.495 11.01 9.495 10 10 C10 10.66 10 11.32 10 12 C11.32 12.66 12.64 13.32 14 14 C13.67 15.32 13.34 16.64 13 18 C12.01 18 11.02 18 10 18 C10.33 19.65 10.66 21.3 11 23 C10.01 23 9.02 23 8 23 C8 22.34 8 21.68 8 21 C4.7 20.67 1.4 20.34 -2 20 C-2.99 22.97 -3.98 25.94 -5 29 C-7.89170147 24.6624478 -9.67519257 20.26650205 -9 15 C-7.5625 12.375 -7.5625 12.375 -6 10 C-5.67 9.01 -5.34 8.02 -5 7 C-4.01 6.34 -3.02 5.68 -2 5 C-0.79549696 2.44816596 -0.79549696 2.44816596 0 0 Z " fill="#272727" transform="translate(50,51)"/>
<path d="M0 0 C1.65 0.33 3.3 0.66 5 1 C5 8.59 5 16.18 5 24 C-0.28 24 -5.56 24 -11 24 C-11.32480105 15.77170671 -10.31423742 8.89320264 -8 1 C-5.69 1.66 -3.38 2.32 -1 3 C-0.67 2.01 -0.34 1.02 0 0 Z " fill="#F2F2F2" transform="translate(74,126)"/>
<path d="M0 0 C0.99 0 1.98 0 3 0 C3 0.99 3 1.98 3 3 C7.29 3.33 11.58 3.66 16 4 C12.5647952 6.29013653 11.014669 6.17842973 7 6 C6.34 7.65 5.68 9.3 5 11 C3.9275 11.12375 2.855 11.2475 1.75 11.375 C-2.44760544 11.988729 -2.44760544 11.988729 -6 14 C-6.67147918 16.44063441 -6.67147918 16.44063441 -7 19 C-7.66 19.99 -8.32 20.98 -9 22 C-9.28875 21.38125 -9.5775 20.7625 -9.875 20.125 C-10.93720042 17.86674235 -10.93720042 17.86674235 -13 16 C-12.34 16 -11.68 16 -11 16 C-11.33 13.36 -11.66 10.72 -12 8 C-13.98 8 -15.96 8 -18 8 C-17.34 8.33 -16.68 8.66 -16 9 C-16.66 10.65 -17.32 12.3 -18 14 C-18.99 14 -19.98 14 -21 14 C-21.33 13.67 -21.66 13.34 -22 13 C-22 13.66 -22 14.32 -22 15 C-22.66 15 -23.32 15 -24 15 C-24.33 16.32 -24.66 17.64 -25 19 C-25 17.35 -25 15.7 -25 14 C-26.32 14.33 -27.64 14.66 -29 15 C-28.34 12.69 -27.68 10.38 -27 8 C-26.01 8 -25.02 8 -24 8 C-23.731875 7.21625 -23.46375 6.4325 -23.1875 5.625 C-22 3 -22 3 -19 1 C-16.3125 1.375 -16.3125 1.375 -14 2 C-13.67 3.32 -13.34 4.64 -13 6 C-9.7 5.67 -6.4 5.34 -3 5 C-3 4.34 -3 3.68 -3 3 C-4.32 2.67 -5.64 2.34 -7 2 C-4.36 2 -1.72 2 1 2 C0.67 1.67 0.34 1.34 0 1 C0 0.67 0 0.34 0 0 Z " fill="#646464" transform="translate(75,23)"/>
<path d="M0 0 C3.50379587 1.37537991 4.66817384 3.53492274 6.19921875 6.86328125 C6.19921875 8.18328125 6.19921875 9.50328125 6.19921875 10.86328125 C6.85921875 11.19328125 7.51921875 11.52328125 8.19921875 11.86328125 C7.20921875 12.35828125 7.20921875 12.35828125 6.19921875 12.86328125 C5.86921875 13.85328125 5.53921875 14.84328125 5.19921875 15.86328125 C-1.60302295 15.52316917 -6.15676527 11.50729723 -10.80078125 6.86328125 C-13.38432343 6.69640677 -13.38432343 6.69640677 -15.80078125 6.86328125 C-15.80078125 6.20328125 -15.80078125 5.54328125 -15.80078125 4.86328125 C-17.12078125 5.19328125 -18.44078125 5.52328125 -19.80078125 5.86328125 C-19.47078125 4.21328125 -19.14078125 2.56328125 -18.80078125 0.86328125 C-17.70765625 1.21390625 -16.61453125 1.56453125 -15.48828125 1.92578125 C-11.89157752 3.19367579 -11.89157752 3.19367579 -8.80078125 1.86328125 C-8.80078125 1.20328125 -8.80078125 0.54328125 -8.80078125 -0.13671875 C-5.72177014 -1.67622431 -3.2630629 -0.77241586 0 0 Z " fill="#474747" transform="translate(118.80078125,133.13671875)"/>
<path d="M0 0 C1.65 0 3.3 0 5 0 C5.4640625 1.175625 5.4640625 1.175625 5.9375 2.375 C6.92875038 4.92330128 6.92875038 4.92330128 8 7 C6.35 6.34 4.7 5.68 3 5 C2.67 6.65 2.34 8.3 2 10 C3.32 10.66 4.64 11.32 6 12 C5.36843005 17.05255964 3.86540627 21.29593201 2 26 C1.154375 25.360625 0.30875 24.72125 -0.5625 24.0625 C-4.76545239 21.2439324 -9.02103733 21 -14 21 C-14.33 20.34 -14.66 19.68 -15 19 C-14.67 18.34 -14.34 17.68 -14 17 C-12.35 17.33 -10.7 17.66 -9 18 C-8.67 17.34 -8.34 16.68 -8 16 C-7.01 16 -6.02 16 -5 16 C-4.67 15.01 -4.34 14.02 -4 13 C-3.34 13 -2.68 13 -2 13 C-2 12.34 -2 11.68 -2 11 C-2.99 10.67 -3.98 10.34 -5 10 C-5 8.68 -5 7.36 -5 6 C-5.66 5.67 -6.32 5.34 -7 5 C-6.34 5 -5.68 5 -5 5 C-4.67 4.34 -4.34 3.68 -4 3 C-4 4.32 -4 5.64 -4 7 C-1.92022703 5.77409808 -1.92022703 5.77409808 0 4 C0 2.68 0 1.36 0 0 Z " fill="#434343" transform="translate(89,98)"/>
<path d="M0 0 C3.1744176 1.09462676 3.98914157 1.98177335 5.75 4.9375 C7 8 7 8 7 11 C6.34 11 5.68 11 5 11 C6.13583432 13.11505905 6.13583432 13.11505905 8 15 C10.51502421 15.22042252 10.51502421 15.22042252 13.25 14.8125 C18.39783906 14.59488989 18.39783906 14.59488989 21.13671875 16.4375 C22.85545888 18.22707758 24.42994929 20.08010103 26 22 C27.30470542 23.03707354 28.62178916 24.06281663 30 25 C29.67 25.66 29.34 26.32 29 27 C26.69 25.35 24.38 23.7 22 22 C21.67 22.33 21.34 22.66 21 23 C21.99 23.6496875 21.99 23.6496875 23 24.3125 C23.66 24.869375 24.32 25.42625 25 26 C25 26.99 25 27.98 25 29 C23.35 29.66 21.7 30.32 20 31 C19.649375 29.741875 19.29875 28.48375 18.9375 27.1875 C17.60254783 23.65269707 17.13093041 23.08309045 13.75 20.9375 C9.7157954 19.92894885 7.02930133 20.09546297 3 21 C3 20.34 3 19.68 3 19 C2.195625 18.71125 1.39125 18.4225 0.5625 18.125 C-2 17 -2 17 -3 15 C-0.525 15.495 -0.525 15.495 2 16 C2.33 14.35 2.66 12.7 3 11 C1.68 10.01 0.36 9.02 -1 8 C-0.67 7.34 -0.34 6.68 0 6 C1.32 6.66 2.64 7.32 4 8 C2.35 6.35 0.7 4.7 -1 3 C-0.67 2.01 -0.34 1.02 0 0 Z " fill="#B3B3B3" transform="translate(105,113)"/>
<path d="M0 0 C0.12375 0.928125 0.12375 0.928125 0.25 1.875 C0.4975 2.57625 0.745 3.2775 1 4 C1.66 4.309375 2.32 4.61875 3 4.9375 C5 6 5 6 5.875 8.4375 C6 11 6 11 4 14 C3.34 14 2.68 14 2 14 C2 14.66 2 15.32 2 16 C2.59167969 15.79503906 3.18335937 15.59007813 3.79296875 15.37890625 C7.83660816 14.0002429 11.76855249 12.68249153 16 12 C15.01 13.485 15.01 13.485 14 15 C13.34 15 12.68 15 12 15 C11.01 15.33 10.02 15.66 9 16 C9 16.66 9 17.32 9 18 C9.66 18 10.32 18 11 18 C11 18.66 11 19.32 11 20 C11.99 20 12.98 20 14 20 C13.67 21.32 13.34 22.64 13 24 C11.8553125 22.9790625 11.8553125 22.9790625 10.6875 21.9375 C6.15399335 18.82412796 1.14053027 20.15848971 -4 21 C-4 21.66 -4 22.32 -4 23 C-5.32 23.33 -6.64 23.66 -8 24 C-7.67 22.68 -7.34 21.36 -7 20 C-6.01 20 -5.02 20 -4 20 C-4.49831724 16.31245243 -5.10067643 14.39509338 -8 12 C-7.01 11.34 -6.02 10.68 -5 10 C-4.34 10.33 -3.68 10.66 -3 11 C-3.33 11.66 -3.66 12.32 -4 13 C-2.68 13.33 -1.36 13.66 0 14 C0 13.34 0 12.68 0 12 C-0.66 11.67 -1.32 11.34 -2 11 C-0.68 10.67 0.64 10.34 2 10 C2 9.34 2 8.68 2 8 C1.01 8 0.02 8 -1 8 C-1.33 7.01 -1.66 6.02 -2 5 C-2.66 4.67 -3.32 4.34 -4 4 C-2.68 2.68 -1.36 1.36 0 0 Z " fill="#494949" transform="translate(67,49)"/>
<path d="M0 0 C2.68025225 1.59674602 4.18624785 2.52945737 6 5 C6.82705116 9.00001472 6.98699293 12.92228315 7 17 C7.66 17 8.32 17 9 17 C9.33 19.64 9.66 22.28 10 25 C9.34 25 8.68 25 8 25 C7.67 24.34 7.34 23.68 7 23 C6.34 23 5.68 23 5 23 C4.67 21.35 4.34 19.7 4 18 C3.01 18.33 2.02 18.66 1 19 C1 16.37886292 1.31292445 14.49064888 2 12 C1.30132812 11.81824219 0.60265625 11.63648437 -0.1171875 11.44921875 C-1.02726562 11.19785156 -1.93734375 10.94648437 -2.875 10.6875 C-3.77992187 10.44386719 -4.68484375 10.20023438 -5.6171875 9.94921875 C-8 9 -8 9 -10 6 C-8.64695791 3.29391583 -7.19033456 3.03816953 -4.4375 1.875 C-3.61121094 1.52179688 -2.78492187 1.16859375 -1.93359375 0.8046875 C-1.29550781 0.53914063 -0.65742187 0.27359375 0 0 Z " fill="#B7B7B7" transform="translate(77,80)"/>
<path d="M0 0 C0.66 0 1.32 0 2 0 C2 1.32 2 2.64 2 4 C3.65 4 5.3 4 7 4 C7 4.66 7 5.32 7 6 C7.66 6 8.32 6 9 6 C10.625 7.5 10.625 7.5 12 10 C12 12.64 12 15.28 12 18 C6.06 18 0.12 18 -6 18 C-4.35 16.02 -2.7 14.04 -1 12 C-1 10.68 -1 9.36 -1 8 C-0.34 8 0.32 8 1 8 C0.67 7.34 0.34 6.68 0 6 C-0.039992 4.00039988 -0.04346799 1.99952758 0 0 Z " fill="#818181" transform="translate(138,132)"/>
<path d="M0 0 C0.33 0.99 0.66 1.98 1 3 C0.67 3.66 0.34 4.32 0 5 C1.32 4.67 2.64 4.34 4 4 C4.66 7.3 5.32 10.6 6 14 C5.01 13.67 4.02 13.34 3 13 C2.67 11.35 2.34 9.7 2 8 C1.34 8 0.68 8 0 8 C-0.12375 8.7425 -0.2475 9.485 -0.375 10.25 C-0.98833516 12.9486747 -1.41690202 14.73843146 -3 17 C-5.95860573 18.69962457 -8.76563526 19.92187842 -12 21 C-12 21.66 -12 22.32 -12 23 C-14 24.625 -14 24.625 -16 26 C-17.56659619 20.09513742 -17.56659619 20.09513742 -15.953125 16.9765625 C-14.70790003 15.26262925 -13.35950608 13.62477556 -12 12 C-11.01 12.33 -10.02 12.66 -9 13 C-9 12.34 -9 11.68 -9 11 C-8.401875 10.79375 -7.80375 10.5875 -7.1875 10.375 C-4.1734035 8.48042506 -3.43783695 6.20245502 -2 3 C-1.34 2.01 -0.68 1.02 0 0 Z " fill="#575757" transform="translate(46,33)"/>
<path d="M0 0 C2.4375 0.625 2.4375 0.625 5 2 C6.99317253 7.31512674 5.27540482 12.66648892 4 18 C3.34 18 2.68 18 2 18 C2 18.66 2 19.32 2 20 C-0.64 20 -3.28 20 -6 20 C-6.12375 21.051875 -6.2475 22.10375 -6.375 23.1875 C-6.91784597 26.49886041 -7.71355109 28.94468384 -9 32 C-9.36871088 33.65919896 -9.71281674 35.3247643 -10 37 C-12.475 37.495 -12.475 37.495 -15 38 C-15 37.34 -15 36.68 -15 36 C-13.68 36 -12.36 36 -11 36 C-11.16371094 35.43796875 -11.32742187 34.8759375 -11.49609375 34.296875 C-12.02864997 31.86940944 -12.09898681 29.73110319 -12.0625 27.25 C-12.05347656 26.45078125 -12.04445313 25.6515625 -12.03515625 24.828125 C-12.02355469 24.22484375 -12.01195313 23.6215625 -12 23 C-11.01 22.67 -10.02 22.34 -9 22 C-8.67 20.02 -8.34 18.04 -8 16 C-7.05125 16.020625 -6.1025 16.04125 -5.125 16.0625 C-2.09333717 16.22551826 -2.09333717 16.22551826 0 15 C0 13.35 0 11.7 0 10 C0.66 10 1.32 10 2 10 C1.67 8.35 1.34 6.7 1 5 C0.01 5.495 0.01 5.495 -1 6 C-0.67 4.02 -0.34 2.04 0 0 Z " fill="#A0A0A0" transform="translate(108,24)"/>
<path d="M0 0 C1.44010481 0.25662245 2.8770687 0.53090821 4.3125 0.8125 C5.11300781 0.96332031 5.91351563 1.11414063 6.73828125 1.26953125 C9.2840262 2.09173212 10.41845899 2.85325253 12 5 C11.75528519 7.99775644 11.34661086 10.30677828 10 13 C7.61435923 12.42415568 5.33317216 11.77772405 3 11 C2.67 17.93 2.34 24.86 2 32 C1.67 32 1.34 32 1 32 C0.67 24.41 0.34 16.82 0 9 C-2.31 8.67 -4.62 8.34 -7 8 C-6.67 7.34 -6.34 6.68 -6 6 C-5.360625 5.896875 -4.72125 5.79375 -4.0625 5.6875 C-3.381875 5.460625 -2.70125 5.23375 -2 5 C-0.70339566 2.50965614 -0.70339566 2.50965614 0 0 Z " fill="#3F3F3F" transform="translate(78,118)"/>
<path d="M0 0 C0.66 0.33 1.32 0.66 2 1 C-0.36637481 8.42038724 -3.18946981 15.60057063 -6.125 22.8125 C-7.02585641 25.026361 -7.924396 27.24116654 -8.8203125 29.45703125 C-9.21492676 30.42616455 -9.60954102 31.39529785 -10.01611328 32.39379883 C-10.8465734 34.59359083 -11.49567917 36.70754029 -12 39 C-12.99 39 -13.98 39 -15 39 C-15.10808032 31.90272572 -14.93854006 25.03905044 -14 18 C-11.61435923 18.57584432 -9.33317216 19.22227595 -7 20 C-6.82984375 19.39414063 -6.6596875 18.78828125 -6.484375 18.1640625 C-4.68433058 11.94050468 -2.50381567 5.97357039 0 0 Z " fill="#CBCBCB" transform="translate(95,111)"/>
<path d="M0 0 C2.97752446 0.33083605 4.81374721 0.87415352 7.3125 2.5625 C9.78719807 6.13706388 9.28590207 8.71146895 9 13 C6.08500057 13.79560764 3.25438581 14.25322499 0.25 14.5625 C-0.54921875 14.64628906 -1.3484375 14.73007812 -2.171875 14.81640625 C-2.77515625 14.87699219 -3.3784375 14.93757813 -4 15 C-4.66 12.69 -5.32 10.38 -6 8 C-4.7934375 7.4121875 -4.7934375 7.4121875 -3.5625 6.8125 C-0.76935262 5.23051809 -0.76935262 5.23051809 -0.1875 2.3125 C-0.125625 1.549375 -0.06375 0.78625 0 0 Z " fill="#303030" transform="translate(86,43)"/>
<path d="M0 0 C0.99 0 1.98 0 3 0 C3 0.99 3 1.98 3 3 C7.29 3.33 11.58 3.66 16 4 C12.5647952 6.29013653 11.014669 6.17842973 7 6 C6.34 7.65 5.68 9.3 5 11 C3.9275 11.12375 2.855 11.2475 1.75 11.375 C-1.37863615 11.89643936 -3.33480424 12.40088254 -6 14 C-6 15.32 -6 16.64 -6 18 C-6.99 18 -7.98 18 -9 18 C-9.33 15.36 -9.66 12.72 -10 10 C-9.43410156 9.80664062 -8.86820312 9.61328125 -8.28515625 9.4140625 C-7.55167969 9.15367188 -6.81820312 8.89328125 -6.0625 8.625 C-5.33160156 8.36976562 -4.60070312 8.11453125 -3.84765625 7.8515625 C-1.81317884 7.14728587 -1.81317884 7.14728587 -1 5 C-1.66 5 -2.32 5 -3 5 C-3 4.34 -3 3.68 -3 3 C-4.32 2.67 -5.64 2.34 -7 2 C-4.36 2 -1.72 2 1 2 C0.67 1.67 0.34 1.34 0 1 C0 0.67 0 0.34 0 0 Z " fill="#555555" transform="translate(75,23)"/>
<path d="M0 0 C2.97 0.495 2.97 0.495 6 1 C5.67 1.66 5.34 2.32 5 3 C4.01 3 3.02 3 2 3 C1.566875 4.36125 1.566875 4.36125 1.125 5.75 C-0.66666667 10.92592593 -0.66666667 10.92592593 -2 13 C-2.61875 13.268125 -3.2375 13.53625 -3.875 13.8125 C-6.65339373 15.36513179 -7.59376506 17.49795298 -9.0625 20.24609375 C-10.19630475 22.36725348 -11.3687353 24.2268862 -13 26 C-13.99 26 -14.98 26 -16 26 C-16 26.66 -16 27.32 -16 28 C-16.66 28 -17.32 28 -18 28 C-17.42365861 23.24518354 -15.44931479 20.02951788 -13 16 C-12.34 16 -11.68 16 -11 16 C-10.67 15.01 -10.34 14.02 -10 13 C-9 12 -8 11 -7 10 C-6.67 9.01 -6.34 8.02 -6 7 C-4.0625 4.3125 -4.0625 4.3125 -2 2 C-1.34 2 -0.68 2 0 2 C0 1.34 0 0.68 0 0 Z " fill="#212121" transform="translate(53,18)"/>
<path d="M0 0 C0.33 0.99 0.66 1.98 1 3 C0.67 3.33 0.34 3.66 0 4 C-0.20931897 6.16296273 -0.36797069 8.3309471 -0.5 10.5 C-0.88888889 16.88888889 -0.88888889 16.88888889 -2 18 C-3.66617115 18.04063832 -5.33388095 18.042721 -7 18 C-9.38987703 12.55108037 -10.74911137 8.94697867 -9 3 C-6.22926837 -0.06759573 -4.03134006 -0.335945 0 0 Z " fill="#B2B2B2" transform="translate(79,35)"/>
<path d="M0 0 C0.99 0.33 1.98 0.66 3 1 C3.75 2.9375 3.75 2.9375 4 5 C3.67 5.66 3.34 6.32 3 7 C3.763125 7.103125 4.52625 7.20625 5.3125 7.3125 C8.17059424 8.04364039 9.15742885 8.76951913 11 11 C10.34 12.32 9.68 13.64 9 15 C4.38 15 -0.24 15 -5 15 C-1.85714286 4.28571429 -1.85714286 4.28571429 0 0 Z " fill="#EFEFEF" transform="translate(90,135)"/>
<path d="M0 0 C0.33 0.99 0.66 1.98 1 3 C1.886875 2.731875 2.77375 2.46375 3.6875 2.1875 C7 2 7 2 9.8125 4.3125 C12 7 12 7 13 9 C12.360625 8.67 11.72125 8.34 11.0625 8 C9.23205433 6.92728775 9.23205433 6.92728775 8 7 C8.99 7.99 9.98 8.98 11 10 C10.34 11.65 9.68 13.3 9 15 C7.68 15 6.36 15 5 15 C5.825 15.45375 6.65 15.9075 7.5 16.375 C8.325 16.91125 9.15 17.4475 10 18 C10 18.66 10 19.32 10 20 C10.66 20.33 11.32 20.66 12 21 C9.875 22.1875 9.875 22.1875 7 23 C3.6875 21.625 3.6875 21.625 1 20 C1 19.34 1 18.68 1 18 C0.01 17.67 -0.98 17.34 -2 17 C-1.34 17 -0.68 17 0 17 C0 16.01 0 15.02 0 14 C1.32 13.67 2.64 13.34 4 13 C4.33 10.69 4.66 8.38 5 6 C3.02 5.34 1.04 4.68 -1 4 C-0.67 2.68 -0.34 1.36 0 0 Z " fill="#7C7C7C" transform="translate(98,114)"/>
<path d="M0 0 C1.65 0 3.3 0 5 0 C4.37143878 3.91834435 3.16760882 7.14548449 1.49609375 10.73828125 C1.00302734 11.80498047 0.50996094 12.87167969 0.00195312 13.97070312 C-0.51431641 15.07349609 -1.03058594 16.17628906 -1.5625 17.3125 C-2.08263672 18.43462891 -2.60277344 19.55675781 -3.13867188 20.71289062 C-4.42099374 23.47752951 -5.70824847 26.23975766 -7 29 C-7.99 29 -8.98 29 -10 29 C-10.18175781 29.56847656 -10.36351563 30.13695313 -10.55078125 30.72265625 C-12.14084634 35.60701003 -13.90459778 40.31029027 -16 45 C-16.66 44.34 -17.32 43.68 -18 43 C-16.77991222 39.70489899 -15.54722399 36.41464166 -14.3125 33.125 C-13.80299805 31.74828125 -13.80299805 31.74828125 -13.28320312 30.34375 C-10.89806363 24.01309939 -8.141844 17.99059035 -5 12 C-4 15 -4 15 -5 18 C-2.69 13.38 -0.38 8.76 2 4 C1.34 3.67 0.68 3.34 0 3 C0 2.01 0 1.02 0 0 Z " fill="#CECECE" transform="translate(123,45)"/>
<path d="M0 0 C3.63 1.32 7.26 2.64 11 4 C10.67 5.98 10.34 7.96 10 10 C10.99 10 11.98 10 13 10 C13.33 11.65 13.66 13.3 14 15 C11.125 15.1875 11.125 15.1875 8 15 C7.34 14.01 6.68 13.02 6 12 C4.35 12.33 2.7 12.66 1 13 C0.01 10.03 -0.98 7.06 -2 4 C-1.01 4 -0.02 4 1 4 C0.67 2.68 0.34 1.36 0 0 Z " fill="#545454" transform="translate(68,88)"/>
<path d="M0 0 C2.33294775 -0.04241723 4.66702567 -0.04092937 7 0 C8 1 8 1 8.09765625 2.84765625 C8.04882812 5.92382812 8.04882812 5.92382812 8 9 C7.34 9 6.68 9 6 9 C6 9.66 6 10.32 6 11 C3.12228205 12.91847864 0.11373372 14.50079488 -3 16 C-5 14 -5 14 -5.25 11.125 C-5.01152253 8.14403168 -4.54507335 6.5107442 -3 4 C-2.01 4.33 -1.02 4.66 0 5 C-0.66 5 -1.32 5 -2 5 C-2 5.66 -2 6.32 -2 7 C1.11332248 6.33131686 1.11332248 6.33131686 2.1875 3.9375 C2.455625 3.298125 2.72375 2.65875 3 2 C2.01 1.67 1.02 1.34 0 1 C0 0.67 0 0.34 0 0 Z " fill="#9A9A9A" transform="translate(56,30)"/>
<path d="M0 0 C0.66 0 1.32 0 2 0 C2.28875 0.804375 2.5775 1.60875 2.875 2.4375 C3.73262568 5.1326468 3.73262568 5.1326468 6 6 C6.33 5.34 6.66 4.68 7 4 C8.64363134 3.27840576 10.31050386 2.60648579 12 2 C10.69656544 6.05512974 8.31154423 6.9051833 4.6875 8.78515625 C1.74597381 10.90278274 1.10232359 13.62818668 0 17 C-0.33 17 -0.66 17 -1 17 C-1 15.35 -1 13.7 -1 12 C-2.27259511 12.45341868 -3.54301243 12.91295227 -4.8125 13.375 C-5.52019531 13.63023438 -6.22789063 13.88546875 -6.95703125 14.1484375 C-9.24773359 15.0265769 -9.24773359 15.0265769 -12 17 C-12.99 16.67 -13.98 16.34 -15 16 C-14.01 15.67 -13.02 15.34 -12 15 C-12 14.34 -12 13.68 -12 13 C-5.25 9 -5.25 9 -3 9 C-2.87625 8.443125 -2.7525 7.88625 -2.625 7.3125 C-1.94023145 4.77885636 -1.00866237 2.42078968 0 0 Z " fill="#727272" transform="translate(46,41)"/>
<path d="M0 0 C2.31 0.66 4.62 1.32 7 2 C6.34 4.64 5.68 7.28 5 10 C4.34 9.67 3.68 9.34 3 9 C1.76603959 10.7142289 1.76603959 10.7142289 1 13 C1.63028587 14.68076231 2.29788106 16.34795544 3 18 C2.625 20.3125 2.625 20.3125 2 22 C0.35 22.33 -1.3 22.66 -3 23 C-3.433422 14.84524526 -2.29370226 7.82316305 0 0 Z " fill="#E2E2E2" transform="translate(66,127)"/>
<path d="M0 0 C0.33 0.66 0.66 1.32 1 2 C1.99 1.67 2.98 1.34 4 1 C4 1.99 4 2.98 4 4 C4.66 4 5.32 4 6 4 C6 5.32 6 6.64 6 8 C6.7115625 7.2265625 6.7115625 7.2265625 7.4375 6.4375 C11.30997616 4.26513533 14.75229924 5.24666846 19 6 C19 6.66 19 7.32 19 8 C18.34 8.66 17.68 9.32 17 10 C17 10.66 17 11.32 17 12 C15.0625 11.625 15.0625 11.625 13 11 C12.67 10.34 12.34 9.68 12 9 C11.01 9.495 11.01 9.495 10 10 C9.67 10.99 9.34 11.98 9 13 C6.03 12.505 6.03 12.505 3 12 C3 11.01 3 10.02 3 9 C2.34 9 1.68 9 1 9 C0.67 8.01 0.34 7.02 0 6 C-0.45375 6.495 -0.9075 6.99 -1.375 7.5 C-3 9 -3 9 -5 9 C-5 8.34 -5 7.68 -5 7 C-4.01 6.34 -3.02 5.68 -2 5 C-0.79549696 2.44816596 -0.79549696 2.44816596 0 0 Z " fill="#353535" transform="translate(50,51)"/>
<path d="M0 0 C0.66 0 1.32 0 2 0 C2 1.32 2 2.64 2 4 C2.66 4.33 3.32 4.66 4 5 C3.34 5 2.68 5 2 5 C1.93941406 5.69867188 1.87882812 6.39734375 1.81640625 7.1171875 C1.73261719 8.02726563 1.64882812 8.93734375 1.5625 9.875 C1.48128906 10.77992188 1.40007812 11.68484375 1.31640625 12.6171875 C1 15 1 15 0 17 C-0.2275015 18.87056791 -0.40962811 20.74685958 -0.5625 22.625 C-0.68818359 24.12933594 -0.68818359 24.12933594 -0.81640625 25.6640625 C-0.87699219 26.43492187 -0.93757813 27.20578125 -1 28 C-1.33 28 -1.66 28 -2 28 C-2.144375 26.7625 -2.28875 25.525 -2.4375 24.25 C-2.78688502 21.43495501 -3.20379366 18.7298503 -4 16 C-4.66 16 -5.32 16 -6 16 C-6.66 16.66 -7.32 17.32 -8 18 C-7.88490339 16.58249437 -7.75746342 15.16598831 -7.625 13.75 C-7.55539063 12.96109375 -7.48578125 12.1721875 -7.4140625 11.359375 C-6.98492887 8.914123 -6.21399362 7.15163097 -5 5 C-4.67 6.65 -4.34 8.3 -4 10 C-1.16625119 6.79663178 -0.4794463 4.21912747 0 0 Z " fill="#262626" transform="translate(64,122)"/>
<path d="M0 0 C0.33 0.99 0.66 1.98 1 3 C1.6599679 4.66933058 2.32558869 6.3364521 3 8 C1.35 7.67 -0.3 7.34 -2 7 C-3.83695434 11.33927969 -3.83695434 11.33927969 -3.125 15.875 C-2.75375 16.57625 -2.3825 17.2775 -2 18 C-4 18 -4 18 -5.625 16.5 C-6.07875 16.005 -6.5325 15.51 -7 15 C-7.29003906 15.99580078 -7.29003906 15.99580078 -7.5859375 17.01171875 C-10.17223199 25.78207381 -10.17223199 25.78207381 -12 30 C-12.66 30 -13.32 30 -14 30 C-13.36016723 25.00618328 -11.92211302 20.66372744 -10.125 16 C-9.74021484 14.97132813 -9.74021484 14.97132813 -9.34765625 13.921875 C-5.07722076 2.67711019 -5.07722076 2.67711019 -1.8125 0.625 C-1.214375 0.41875 -0.61625 0.2125 0 0 Z " fill="#595959" transform="translate(97,120)"/>
<path d="M0 0 C0.33 0.99 0.66 1.98 1 3 C-1.0072908 6.0109362 -1.83884224 6.63016497 -5 8 C-4.67 10.31 -4.34 12.62 -4 15 C-2.02 14.34 -0.04 13.68 2 13 C2 13.99 2 14.98 2 16 C-2.92127034 16.16682272 -6.50343896 16.24828052 -11 14 C-10.690625 13.319375 -10.38125 12.63875 -10.0625 11.9375 C-8.86629351 8.63034088 -8.40994603 5.48454122 -8 2 C-2.25 0 -2.25 0 0 0 Z " fill="#767676" transform="translate(86,43)"/>
<path d="M0 0 C0.99 0 1.98 0 3 0 C2.625 2.4375 2.625 2.4375 2 5 C1.01 5.495 1.01 5.495 0 6 C-1.57548683 8.62581138 -2 9.87099787 -2 13 C-1.01 13 -0.02 13 1 13 C1 13.99 1 14.98 1 16 C-1.5 17.6875 -1.5 17.6875 -4 19 C-3.67 17.35 -3.34 15.7 -3 14 C-3.66 14 -4.32 14 -5 14 C-5.33 13.34 -5.66 12.68 -6 12 C-6.99 11.67 -7.98 11.34 -9 11 C-9.28875 11.804375 -9.5775 12.60875 -9.875 13.4375 C-11 16 -11 16 -13 17 C-12.15630537 13.01162538 -11.58581409 10.57039793 -8.625 7.6875 C-6 6 -6 6 -3.8125 5 C-1.50737973 3.7282095 -0.96030234 2.40075585 0 0 Z " fill="#4B4B4B" transform="translate(59,41)"/>
<path d="M0 0 C1.4540625 0.0309375 1.4540625 0.0309375 2.9375 0.0625 C2.9375 0.7225 2.9375 1.3825 2.9375 2.0625 C6.240814 2.95185377 9.56044375 3.52524105 12.9375 4.0625 C12.9375 3.4025 12.9375 2.7425 12.9375 2.0625 C13.9275 2.0625 14.9175 2.0625 15.9375 2.0625 C15.9375 3.3825 15.9375 4.7025 15.9375 6.0625 C14.265625 7.2109375 14.265625 7.2109375 11.9375 8.0625 C9.359375 7.1640625 9.359375 7.1640625 6.6875 5.6875 C5.34945312 4.96433594 5.34945312 4.96433594 3.984375 4.2265625 C3.30890625 3.84242187 2.6334375 3.45828125 1.9375 3.0625 C2.2675 4.0525 2.5975 5.0425 2.9375 6.0625 C1.1875 8.0625 1.1875 8.0625 -1.0625 10.0625 C-2.3825 10.0625 -3.7025 10.0625 -5.0625 10.0625 C-4.92200482 8.58281676 -4.77495174 7.10375484 -4.625 5.625 C-4.54378906 4.80128906 -4.46257812 3.97757812 -4.37890625 3.12890625 C-3.8690239 -0.20106615 -3.4903173 0.07123097 0 0 Z " fill="#BFBFBF" transform="translate(104.0625,106.9375)"/>
<path d="M0 0 C2 2 2 2 2.125 4.625 C2.08375 5.40875 2.0425 6.1925 2 7 C-1.61704076 8.20568025 -3.05866473 7.97946735 -6.75 6.6875 C-10 5 -10 5 -11 3 C-10 1 -10 1 -7.75 -0.1875 C-4.65063283 -1.10322212 -3.04954103 -0.98904033 0 0 Z " fill="#DADADA" transform="translate(78,83)"/>
<path d="M0 0 C1.23593891 3.70781672 0.5678132 4.67510253 -0.9375 8.1875 C-1.31777344 9.08855469 -1.69804688 9.98960938 -2.08984375 10.91796875 C-2.39019531 11.60503906 -2.69054688 12.29210938 -3 13 C-3.66 13 -4.32 13 -5 13 C-5 13.66 -5 14.32 -5 15 C-10.47619048 20 -10.47619048 20 -13 20 C-13 19.34 -13 18.68 -13 18 C-13.66 18 -14.32 18 -15 18 C-13.84826645 15.53199953 -12.95216435 13.95216435 -11 12 C-10.34 12.33 -9.68 12.66 -9 13 C-9 12.34 -9 11.68 -9 11 C-8.401875 10.79375 -7.80375 10.5875 -7.1875 10.375 C-4.1734035 8.48042506 -3.43783695 6.20245502 -2 3 C-1.34 2.01 -0.68 1.02 0 0 Z " fill="#454545" transform="translate(46,33)"/>
<path d="M0 0 C0.66 0 1.32 0 2 0 C2 0.66 2 1.32 2 2 C4.64 2 7.28 2 10 2 C10 2.66 10 3.32 10 4 C7.36 4 4.72 4 2 4 C1.87625 5.051875 1.7525 6.10375 1.625 7.1875 C1.08215403 10.49886041 0.28644891 12.94468384 -1 16 C-1.36871088 17.65919896 -1.71281674 19.3247643 -2 21 C-3.65 21.33 -5.3 21.66 -7 22 C-7 21.34 -7 20.68 -7 20 C-5.68 20 -4.36 20 -3 20 C-3.16371094 19.43796875 -3.32742187 18.8759375 -3.49609375 18.296875 C-4.02864997 15.86940944 -4.09898681 13.73110319 -4.0625 11.25 C-4.05347656 10.45078125 -4.04445313 9.6515625 -4.03515625 8.828125 C-4.02355469 8.22484375 -4.01195313 7.6215625 -4 7 C-3.01 6.67 -2.02 6.34 -1 6 C-0.67 4.02 -0.34 2.04 0 0 Z " fill="#A2A2A2" transform="translate(100,40)"/>
<path d="M0 0 C0.66 0 1.32 0 2 0 C2 1.32 2 2.64 2 4 C3.65 4 5.3 4 7 4 C7 4.66 7 5.32 7 6 C7.66 6 8.32 6 9 6 C10.625 8.5 10.625 8.5 12 11 C11.01 11 10.02 11 9 11 C8.67 9.68 8.34 8.36 8 7 C6.35 6.67 4.7 6.34 3 6 C2.855625 7.051875 2.71125 8.10375 2.5625 9.1875 C2.12473034 12.15460549 1.62195134 15.06794366 1 18 C-1.31 18 -3.62 18 -6 18 C-4.69791667 16.56770833 -3.39583333 15.13541667 -2.09375 13.703125 C-0.63975508 11.77639485 -0.63975508 11.77639485 -1 8 C-0.34 8 0.32 8 1 8 C0.67 7.34 0.34 6.68 0 6 C-0.039992 4.00039988 -0.04346799 1.99952758 0 0 Z " fill="#9C9C9C" transform="translate(138,132)"/>
<path d="M0 0 C2.97 0.495 2.97 0.495 6 1 C6.33 2.32 6.66 3.64 7 5 C7.66 4.67 8.32 4.34 9 4 C9.33 3.01 9.66 2.02 10 1 C11.32 1 12.64 1 14 1 C13.9375 2.75 13.9375 2.75 13 5 C10.29950956 7.00840495 7.44873267 9 4 9 C4 8.34 4 7.68 4 7 C3.34 7 2.68 7 2 7 C2 6.34 2 5.68 2 5 C1.01 4.67 0.02 4.34 -1 4 C-0.67 2.68 -0.34 1.36 0 0 Z " fill="#474747" transform="translate(67,74)"/>
<path d="M0 0 C2.53691362 3.80537043 3.74027323 7.4170792 4 12 C2.3125 14.125 2.3125 14.125 0 16 C-1.20044453 18.28134271 -2.07210446 20.58747159 -3 23 C-3.66 23 -4.32 23 -5 23 C-4.67 18.38 -4.34 13.76 -4 9 C-3.01 9.33 -2.02 9.66 -1 10 C-1 10.66 -1 11.32 -1 12 C-0.01 12 0.98 12 2 12 C1.67 10.7625 1.34 9.525 1 8.25 C0.20108841 5.25408155 0 3.19892281 0 0 Z " fill="#717171" transform="translate(40,68)"/>
<path d="M0 0 C4.95 0 9.9 0 15 0 C14.67 1.98 14.34 3.96 14 6 C13.05640625 5.87431641 13.05640625 5.87431641 12.09375 5.74609375 C6.4685618 5.0768319 1.58766133 5.06872311 -4 6 C-4.33 5.34 -4.66 4.68 -5 4 C-2.69 3.34 -0.38 2.68 2 2 C1.34 1.34 0.68 0.68 0 0 Z " fill="#E1E1E1" transform="translate(69,0)"/>
<path d="M0 0 C0.8353125 0.37125 0.8353125 0.37125 1.6875 0.75 C0.57992378 3.66997367 -0.09063585 4.62553962 -2.875 6.1875 C-5.56680285 7.54062712 -5.56680285 7.54062712 -6.125 10.4375 C-6.186875 11.200625 -6.24875 11.96375 -6.3125 12.75 C-7.6325 13.08 -8.9525 13.41 -10.3125 13.75 C-10.9725 12.43 -11.6325 11.11 -12.3125 9.75 C-4.19598416 -0.45361991 -4.19598416 -0.45361991 0 0 Z " fill="#202020" transform="translate(29.3125,50.25)"/>
<path d="M0 0 C0.33 0 0.66 0 1 0 C1 1.65 1 3.3 1 5 C2.65 3.68 4.3 2.36 6 1 C6.66 1.33 7.32 1.66 8 2 C7.67 3.98 7.34 5.96 7 8 C6.01 8 5.02 8 4 8 C4 9.98 4 11.96 4 14 C2.02 14.99 2.02 14.99 0 16 C-1.02224111 11.01657457 -1.3632306 6.07454515 -1 1 C-0.67 0.67 -0.34 0.34 0 0 Z " fill="#111111" transform="translate(34,86)"/>
<path d="M0 0 C0.66 0.66 1.32 1.32 2 2 C1.19074658 4.14705981 0.37750887 6.2926183 -0.4375 8.4375 C-1.11619141 10.22994141 -1.11619141 10.22994141 -1.80859375 12.05859375 C-3 15 -3 15 -4 16 C-5.99958364 16.04080783 -8.00045254 16.04254356 -10 16 C-9.34 15.67 -8.68 15.34 -8 15 C-8 13.68 -8 12.36 -8 11 C-8.99 10.67 -9.98 10.34 -11 10 C-7.91190305 8.23537317 -6.76687864 8 -3 8 C-2.690625 6.865625 -2.38125 5.73125 -2.0625 4.5625 C-1 1 -1 1 0 0 Z " fill="#858585" transform="translate(92,58)"/>
<path d="M0 0 C4.74018901 1.83491188 9.36413251 3.91941459 14 6 C14 6.33 14 6.66 14 7 C8.06 7 2.12 7 -4 7 C-3.67 5.68 -3.34 4.36 -3 3 C-2.34 3 -1.68 3 -1 3 C-0.67 2.01 -0.34 1.02 0 0 Z " fill="#1B1B1B" transform="translate(110,143)"/>
<path d="M0 0 C1.65 0 3.3 0 5 0 C5.309375 0.78375 5.61875 1.5675 5.9375 2.375 C6.92875038 4.92330128 6.92875038 4.92330128 8 7 C5.525 6.01 5.525 6.01 3 5 C2.67 6.65 2.34 8.3 2 10 C3.32 10.66 4.64 11.32 6 12 C5.34 12.66 4.68 13.32 4 14 C1.375 13.625 1.375 13.625 -1 13 C-0.34 12.34 0.32 11.68 1 11 C-0.32 10.34 -1.64 9.68 -3 9 C-2.505 8.2575 -2.01 7.515 -1.5 6.75 C0.31923475 3.93681812 0.31923475 3.93681812 0 0 Z " fill="#A0A0A0" transform="translate(89,98)"/>
<path d="M0 0 C-0.66 0.66 -1.32 1.32 -2 2 C-2.66 2 -3.32 2 -4 2 C-4.99 2.33 -5.98 2.66 -7 3 C-7 3.66 -7 4.32 -7 5 C-6.34 5 -5.68 5 -5 5 C-5 5.66 -5 6.32 -5 7 C-4.01 7 -3.02 7 -2 7 C-2.33 8.32 -2.66 9.64 -3 11 C-3.845625 10.319375 -4.69125 9.63875 -5.5625 8.9375 C-9.66989054 6.62242533 -11.50985524 6.92236526 -16 8 C-16.33 7.01 -16.66 6.02 -17 5 C-15.02 4.67 -13.04 4.34 -11 4 C-11 3.34 -11 2.68 -11 2 C-3.57142857 -1.57142857 -3.57142857 -1.57142857 0 0 Z " fill="#696969" transform="translate(83,62)"/>
<path d="M0 0 C0.45356243 6.46326465 -0.40621058 9.60931587 -4 15 C-4.66 15 -5.32 15 -6 15 C-5.67 10.38 -5.34 5.76 -5 1 C-2 0 -2 0 0 0 Z " fill="#878787" transform="translate(45,53)"/>
<path d="M0 0 C1.65 0 3.3 0 5 0 C4.37143878 3.91834435 3.16760882 7.14548449 1.49609375 10.73828125 C1.00302734 11.80498047 0.50996094 12.87167969 0.00195312 13.97070312 C-0.51431641 15.07349609 -1.03058594 16.17628906 -1.5625 17.3125 C-2.08263672 18.43462891 -2.60277344 19.55675781 -3.13867188 20.71289062 C-4.42099374 23.47752951 -5.70824847 26.23975766 -7 29 C-7.66 29 -8.32 29 -9 29 C-6.4621689 20.11759114 -2.22230349 12.17381793 2 4 C1.34 3.67 0.68 3.34 0 3 C0 2.01 0 1.02 0 0 Z " fill="#A9A9A9" transform="translate(123,45)"/>
<path d="M0 0 C4 1 4 1 6 4 C5.1015625 7.13671875 5.1015625 7.13671875 3.625 10.6875 C3.14289063 11.86699219 2.66078125 13.04648438 2.1640625 14.26171875 C1.77992187 15.16535156 1.39578125 16.06898438 1 17 C0.67 17 0.34 17 0 17 C0 11.39 0 5.78 0 0 Z " fill="#F6F6F6" transform="translate(81,129)"/>
<path d="M0 0 C0.66 0.33 1.32 0.66 2 1 C1.67 1.99 1.34 2.98 1 4 C1.66 4 2.32 4 3 4 C3.66 5.65 4.32 7.3 5 9 C2.03 8.505 2.03 8.505 -1 8 C-1.33 9.32 -1.66 10.64 -2 12 C-3.32 11.67 -4.64 11.34 -6 11 C-5.63076923 4.6 -5.63076923 4.6 -2.4375 1.5625 C-1.633125 1.046875 -0.82875 0.53125 0 0 Z " fill="#1E1E1E" transform="translate(50,56)"/>
<path d="M0 0 C1.65 0.33 3.3 0.66 5 1 C5 3 5 5 5 7 C3.35 7 1.7 7 0 7 C-1.19838209 9.32854463 -1.19838209 9.32854463 -2 12 C-1.01 13.485 -1.01 13.485 0 15 C-1.32 15 -2.64 15 -4 15 C-4.66 12.69 -5.32 10.38 -6 8 C-4.7934375 7.4121875 -4.7934375 7.4121875 -3.5625 6.8125 C-0.76935262 5.23051809 -0.76935262 5.23051809 -0.1875 2.3125 C-0.125625 1.549375 -0.06375 0.78625 0 0 Z " fill="#3E3E3E" transform="translate(86,43)"/>
<path d="M0 0 C1.98 0.66 3.96 1.32 6 2 C6.66 5.3 7.32 8.6 8 12 C3.39404974 10.84851243 1.88502767 9.70932128 -1 6 C-0.8125 2.6875 -0.8125 2.6875 0 0 Z " fill="#E9E9E9" transform="translate(131,128)"/>
<path d="M0 0 C0.99 0 1.98 0 3 0 C3.12375 1.093125 3.2475 2.18625 3.375 3.3125 C3.75464801 7.07381802 3.75464801 7.07381802 6 10 C3.525 9.01 3.525 9.01 1 8 C1.33 8.99 1.66 9.98 2 11 C0.35 11.33 -1.3 11.66 -3 12 C-3.33 9.69 -3.66 7.38 -4 5 C-2.68 4.34 -1.36 3.68 0 3 C0 2.01 0 1.02 0 0 Z " fill="#343434" transform="translate(65,84)"/>
<path d="M0 0 C0.87785156 -0.00257812 1.75570313 -0.00515625 2.66015625 -0.0078125 C4.9375 0.125 4.9375 0.125 6.9375 1.125 C6.9375 1.785 6.9375 2.445 6.9375 3.125 C2.22798428 5.62693023 -0.97267501 4.87595779 -6.0625 4.125 C-7.0525 4.62 -7.0525 4.62 -8.0625 5.125 C-8.0625 3.805 -8.0625 2.485 -8.0625 1.125 C-5.09900719 0.13716906 -3.0912337 -0.00910525 0 0 Z " fill="#212121" transform="translate(8.0625,58.875)"/>
<path d="M0 0 C-3.75 3 -3.75 3 -6 3 C-6.20674844 8.06533667 -5.86117261 12.25400985 -4 17 C-2.01432266 18.49743888 -2.01432266 18.49743888 0 19 C-5.75 19.125 -5.75 19.125 -8 18 C-10.02812787 12.49508149 -10.39377546 9.10138466 -7.9921875 3.703125 C-5.78144505 -0.09169275 -4.23096093 -1.41032031 0 0 Z " fill="#8A8A8A" transform="translate(76,35)"/>
<path d="M0 0 C0.99 0.33 1.98 0.66 3 1 C2.01 3.31 1.02 5.62 0 8 C-0.66 8 -1.32 8 -2 8 C-2.33 8.66 -2.66 9.32 -3 10 C-3.99 9.67 -4.98 9.34 -6 9 C-7.32 9 -8.64 9 -10 9 C-8.52440331 4.57320993 -6.09942632 4.08567304 -2 2 C-1.34 2 -0.68 2 0 2 C0 1.34 0 0.68 0 0 Z " fill="#B4B4B4" transform="translate(89,58)"/>
<path d="M0 0 C0.2475 0.556875 0.495 1.11375 0.75 1.6875 C2.89755857 5.66048336 5.23918048 8.49278699 9 11 C9 11.99 9 12.98 9 14 C7.02 14 5.04 14 3 14 C2.67 12.35 2.34 10.7 2 9 C1.34 9 0.68 9 0 9 C-0.99 6.36 -1.98 3.72 -3 1 C-2.01 0.67 -1.02 0.34 0 0 Z " fill="#7B7B7B" transform="translate(98,13)"/>
<path d="M0 0 C0.99 0.33 1.98 0.66 3 1 C2.34 1 1.68 1 1 1 C1 1.66 1 2.32 1 3 C2.32 2.67 3.64 2.34 5 2 C4.64766839 7.4611399 4.64766839 7.4611399 4 10 C1.9375 11.5 1.9375 11.5 0 12 C-2 10 -2 10 -2.25 7.125 C-2.01152253 4.14403168 -1.54507335 2.5107442 0 0 Z " fill="#919191" transform="translate(53,34)"/>
<path d="M0 0 C0.33 0.66 0.66 1.32 1 2 C1.99 2.33 2.98 2.66 4 3 C0.7 9.6 -2.6 16.2 -6 23 C-7 20 -7 20 -5.6875 17.3125 C-5.130625 16.219375 -4.57375 15.12625 -4 14 C-3.40990126 12.00243602 -2.93722863 9.99881417 -2.47265625 7.96875 C-1.82053994 5.25249695 -0.9221756 2.63478742 0 0 Z " fill="#E8E8E8" transform="translate(122,46)"/>
<path d="M0 0 C2.04119788 1.61594832 4.04072937 3.2856382 6 5 C6 5.66 6 6.32 6 7 C5.34 7 4.68 7 4 7 C4 7.66 4 8.32 4 9 C4.66 9 5.32 9 6 9 C6 9.66 6 10.32 6 11 C8.31 11 10.62 11 13 11 C13 11.33 13 11.66 13 12 C11.39884424 12.2493357 9.79379841 12.47378648 8.1875 12.6875 C7.29417969 12.81511719 6.40085937 12.94273437 5.48046875 13.07421875 C3 13 3 13 1.17578125 11.64453125 C0 10 0 10 0 8 C0.66 8 1.32 8 2 8 C1.67 7.4225 1.34 6.845 1 6.25 C0 4 0 4 0 0 Z " fill="#E2E2E2" transform="translate(110,116)"/>
<path d="M0 0 C0.0825 0.61875 0.165 1.2375 0.25 1.875 C0.4975 2.57625 0.745 3.2775 1 4 C1.66 4.309375 2.32 4.61875 3 4.9375 C5 6 5 6 5.8125 8.5 C6 11 6 11 5 13 C4.01 13 3.02 13 2 13 C2 11.35 2 9.7 2 8 C1.01 8 0.02 8 -1 8 C-1.33 7.01 -1.66 6.02 -2 5 C-2.66 4.67 -3.32 4.34 -4 4 C-2.68 2.68 -1.36 1.36 0 0 Z " fill="#565656" transform="translate(67,49)"/>
<path d="M0 0 C0.66 0 1.32 0 2 0 C0.11978282 6.03648672 -2.13033889 11.69829221 -4.81640625 17.421875 C-5.9631262 19.91968082 -7.00088963 22.44006743 -8 25 C-8.66 24.34 -9.32 23.68 -10 23 C-6.7 15.41 -3.4 7.82 0 0 Z " fill="#797979" transform="translate(113,74)"/>
<path d="M0 0 C0.04241723 2.33294775 0.04092937 4.66702567 0 7 C-1 8 -1 8 -3.5 8.125 C-6 8 -6 8 -7 7 C-7.25 4.5625 -7.25 4.5625 -7 2 C-4 0 -4 0 0 0 Z " fill="#A8A8A8" transform="translate(78,45)"/>
<path d="M0 0 C4.29 0.33 8.58 0.66 13 1 C9.5647952 3.29013653 8.014669 3.17842973 4 3 C3.67 4.32 3.34 5.64 3 7 C1.02 7 -0.96 7 -3 7 C-3 6.34 -3 5.68 -3 5 C-2.01 5 -1.02 5 0 5 C0 3.35 0 1.7 0 0 Z " fill="#5C5C5C" transform="translate(78,26)"/>
<path d="M0 0 C5.94 0.99 5.94 0.99 12 2 C12 2.66 12 3.32 12 4 C13.65 4.33 15.3 4.66 17 5 C16.34 6.32 15.68 7.64 15 9 C14.319375 8.360625 13.63875 7.72125 12.9375 7.0625 C8.7685951 4.13539656 4.99087604 4 0 4 C-0.33 3.34 -0.66 2.68 -1 2 C-0.67 1.34 -0.34 0.68 0 0 Z " fill="#656565" transform="translate(75,115)"/>
<path d="M0 0 C0.66 0 1.32 0 2 0 C2.433125 1.2065625 2.433125 1.2065625 2.875 2.4375 C3.73262568 5.1326468 3.73262568 5.1326468 6 6 C6.33 5.34 6.66 4.68 7 4 C8.64363134 3.27840576 10.31050386 2.60648579 12 2 C10.99138318 4.60924787 10.33501908 5.79748847 7.90625 7.265625 C6.71515625 7.75289062 6.71515625 7.75289062 5.5 8.25 C4.7059375 8.58515625 3.911875 8.9203125 3.09375 9.265625 C1 10 1 10 -1 10 C-0.67 6.7 -0.34 3.4 0 0 Z " fill="#868686" transform="translate(46,41)"/>
<path d="M0 0 C0.99 0.33 1.98 0.66 3 1 C2.95875 1.845625 2.9175 2.69125 2.875 3.5625 C3.01535028 7.42213269 3.82780164 10.33688013 5 14 C3.02 14.99 3.02 14.99 1 16 C1 13.69 1 11.38 1 9 C0.34 9 -0.32 9 -1 9 C-0.67 6.03 -0.34 3.06 0 0 Z " fill="#F2F2F2" transform="translate(85,88)"/>
<path d="M0 0 C2.64 0.33 5.28 0.66 8 1 C7.37240135 3.92879371 6.41377341 6.36095629 5 9 C3.02 7.68 1.04 6.36 -1 5 C-0.67 3.35 -0.34 1.7 0 0 Z " fill="#E8E8E8" transform="translate(92,103)"/>
<path d="M0 0 C3 2 3 2 4 5 C4 5.99 4 6.98 4 8 C2.35 8.66 0.7 9.32 -1 10 C-2.1875 7.8125 -2.1875 7.8125 -3 5 C-1.625 2.1875 -1.625 2.1875 0 0 Z " fill="#373737" transform="translate(95,126)"/>
<path d="M0 0 C2 3 2 3 2 6 C3.65 5.34 5.3 4.68 7 4 C7 5.65 7 7.3 7 9 C4.33333333 9 1.66666667 9 -1 9 C-1 8.34 -1 7.68 -1 7 C-1.66 6.67 -2.32 6.34 -3 6 C-1.125 1.125 -1.125 1.125 0 0 Z " fill="#343434" transform="translate(67,95)"/>
<path d="M0 0 C0.33 0 0.66 0 1 0 C1.22226864 1.76913824 1.42733873 3.54044371 1.625 5.3125 C1.74101563 6.29863281 1.85703125 7.28476562 1.9765625 8.30078125 C2 11 2 11 0 14 C-1.9453125 14.29296875 -1.9453125 14.29296875 -4.125 14.1875 C-6.043125 14.0946875 -6.043125 14.0946875 -8 14 C-4.25 11 -4.25 11 -2 11 C-2 9.35 -2 7.7 -2 6 C-1.34 6 -0.68 6 0 6 C0 4.02 0 2.04 0 0 Z " fill="#888888" transform="translate(110,28)"/>
<path d="M0 0 C3.98542514 1.36643148 6.92539863 3.10109014 10 6 C10 6.99 10 7.98 10 9 C8.35 9.66 6.7 10.32 5 11 C4.80664062 10.45730469 4.61328125 9.91460937 4.4140625 9.35546875 C4.15367188 8.64003906 3.89328125 7.92460937 3.625 7.1875 C3.36976562 6.47980469 3.11453125 5.77210938 2.8515625 5.04296875 C1.9734231 2.75226641 1.9734231 2.75226641 0 0 Z " fill="#DADADA" transform="translate(120,133)"/>
<path d="M0 0 C0.66 0.33 1.32 0.66 2 1 C2 1.99 2 2.98 2 4 C3.258125 3.938125 4.51625 3.87625 5.8125 3.8125 C9.72231986 3.79173989 9.72231986 3.79173989 12 5.5 C12.33 5.995 12.66 6.49 13 7 C11.14375 6.7215625 11.14375 6.7215625 9.25 6.4375 C6.23720423 6.05288777 3.89989173 5.9125406 1 7 C1 6.34 1 5.68 1 5 C-0.2065625 4.566875 -0.2065625 4.566875 -1.4375 4.125 C-4 3 -4 3 -5 1 C-2.525 1.495 -2.525 1.495 0 2 C0 1.34 0 0.68 0 0 Z " fill="#939393" transform="translate(107,127)"/>
<path d="M0 0 C0.99 0.33 1.98 0.66 3 1 C3.70211894 2.65204456 4.36971413 4.31923769 5 6 C5.66 6.33 6.32 6.66 7 7 C4.69 8.32 2.38 9.64 0 11 C0 7.37 0 3.74 0 0 Z " fill="#151515" transform="translate(40,106)"/>
<path d="M0 0 C0.99 0 1.98 0 3 0 C3.33 1.65 3.66 3.3 4 5 C4.99 5 5.98 5 7 5 C7 5.99 7 6.98 7 8 C4.5 9.6875 4.5 9.6875 2 11 C2.33 9.35 2.66 7.7 3 6 C2.34 6 1.68 6 1 6 C0.67 5.34 0.34 4.68 0 4 C-0.66 4 -1.32 4 -2 4 C-2 3.34 -2 2.68 -2 2 C-1.34 2 -0.68 2 0 2 C0 1.34 0 0.68 0 0 Z " fill="#595959" transform="translate(53,49)"/>
<path d="M0 0 C0.66 0.33 1.32 0.66 2 1 C2 2.65 2 4.3 2 6 C1.34 6 0.68 6 0 6 C0 7.32 0 8.64 0 10 C-0.99 10 -1.98 10 -3 10 C-3.33 7.36 -3.66 4.72 -4 2 C-2.125 0.9375 -2.125 0.9375 0 0 Z " fill="#4B4B4B" transform="translate(69,31)"/>
<path d="M0 0 C1.98 0.495 1.98 0.495 4 1 C4.625 2.8125 4.625 2.8125 5 5 C4.01 6.485 4.01 6.485 3 8 C1.68 8 0.36 8 -1 8 C-1.125 2.25 -1.125 2.25 0 0 Z " fill="#EFEFEF" transform="translate(100,109)"/>
<path d="M0 0 C0.28875 0.639375 0.5775 1.27875 0.875 1.9375 C1.82823451 4.15206079 1.82823451 4.15206079 4 5 C4 7 4 7 2.6875 8.625 C1 10 1 10 -2 10 C-2.33 10.99 -2.66 11.98 -3 13 C-3.33 11.68 -3.66 10.36 -4 9 C-3.01 8.34 -2.02 7.68 -1 7 C-1.66 5.68 -2.32 4.36 -3 3 C-2.01 2.01 -1.02 1.02 0 0 Z " fill="#353535" transform="translate(83,104)"/>
<path d="M0 0 C0 0.66 0 1.32 0 2 C0.66 2 1.32 2 2 2 C2.33 4.64 2.66 7.28 3 10 C2.34 10 1.68 10 1 10 C0.67 9.34 0.34 8.68 0 8 C-0.66 8 -1.32 8 -2 8 C-2.33 6.35 -2.66 4.7 -3 3 C-3.99 3.33 -4.98 3.66 -6 4 C-6 3.01 -6 2.02 -6 1 C-3.92446352 0.4465236 -2.15634036 0 0 0 Z " fill="#9B9B9B" transform="translate(84,95)"/>
<path d="M0 0 C0.99 0.33 1.98 0.66 3 1 C3 1.66 3 2.32 3 3 C4.98 3.66 6.96 4.32 9 5 C9 5.33 9 5.66 9 6 C7.02 6 5.04 6 3 6 C3.33 6.99 3.66 7.98 4 9 C3.01 9.495 3.01 9.495 2 10 C1.67 9.01 1.34 8.02 1 7 C0.34 6.67 -0.32 6.34 -1 6 C-1.042721 4.33388095 -1.04063832 2.66617115 -1 1 C-0.67 0.67 -0.34 0.34 0 0 Z " fill="#2D2D2D" transform="translate(62,78)"/>
<path d="M0 0 C0.66 0 1.32 0 2 0 C1.79503906 0.60328125 1.59007813 1.2065625 1.37890625 1.828125 C1.10949219 2.62734375 0.84007813 3.4265625 0.5625 4.25 C0.29566406 5.03890625 0.02882813 5.8278125 -0.24609375 6.640625 C-0.91954708 8.74821988 -1.49150595 10.84753973 -2 13 C-2.99 13 -3.98 13 -5 13 C-5 9.04 -5 5.08 -5 1 C-4.67 1 -4.34 1 -4 1 C-3.67 2.98 -3.34 4.96 -3 7 C-2.01 4.69 -1.02 2.38 0 0 Z " fill="#B5B5B5" transform="translate(85,137)"/>
<path d="M0 0 C0.66 0 1.32 0 2 0 C-1.07517084 10.55808656 -1.07517084 10.55808656 -3 15 C-3.66 15 -4.32 15 -5 15 C-4.43174347 9.45949887 -2.37113483 4.96284034 0 0 Z " fill="#424242" transform="translate(88,135)"/>
<path d="M0 0 C2.86724686 0.57344937 3.8614515 0.8614515 6 3 C6.125 5.625 6.125 5.625 6 8 C4.35 8.33 2.7 8.66 1 9 C1.33 7.68 1.66 6.36 2 5 C1.34 5 0.68 5 0 5 C0 3.35 0 1.7 0 0 Z " fill="#F6F6F6" transform="translate(74,82)"/>
<path d="M0 0 C2.475 0.99 2.475 0.99 5 2 C5 2.66 5 3.32 5 4 C5.61875 4.28875 6.2375 4.5775 6.875 4.875 C9 6 9 6 11 8 C8.69 8.33 6.38 8.66 4 9 C4.33 8.34 4.66 7.68 5 7 C3.62514468 5.45833358 3.62514468 5.45833358 2 4 C1.34 4 0.68 4 0 4 C0 2.68 0 1.36 0 0 Z " fill="#626262" transform="translate(84,7)"/>
<path d="M0 0 C6.10419901 1.2457549 9.54831603 3.69715653 14 8 C13.67 8.66 13.34 9.32 13 10 C11.96875 9.21625 10.9375 8.4325 9.875 7.625 C6.71901262 5.35603148 3.78184481 4.01464129 0 3 C0 2.01 0 1.02 0 0 Z " fill="#7C7C7C" transform="translate(121,130)"/>
<path d="M0 0 C4.5 2.25 4.5 2.25 6 6 C6.33 5.34 6.66 4.68 7 4 C8.32 5.32 9.64 6.64 11 8 C9.8553125 7.9690625 9.8553125 7.9690625 8.6875 7.9375 C5.89814214 7.87057159 5.89814214 7.87057159 3 9 C2.01 6.03 1.02 3.06 0 0 Z " fill="#8D8D8D" transform="translate(66,92)"/>
<path d="M0 0 C2.97 0.495 2.97 0.495 6 1 C5.67 2.32 5.34 3.64 5 5 C3.1875 5.6875 3.1875 5.6875 1 6 C-0.75 4.5625 -0.75 4.5625 -2 3 C-1.34 2.01 -0.68 1.02 0 0 Z " fill="#232323" transform="translate(118,141)"/>
<path d="M0 0 C1 3 1 3 -0.375 5.8125 C-0.91125 6.864375 -1.4475 7.91625 -2 9 C-2.2165625 10.60875 -2.2165625 10.60875 -2.4375 12.25 C-2.623125 13.1575 -2.80875 14.065 -3 15 C-5.03515625 16.171875 -5.03515625 16.171875 -7 17 C-5.1668733 11.00067626 -2.92678249 5.55079437 0 0 Z " fill="#D8D8D8" transform="translate(118,57)"/>
<path d="M0 0 C0.99 0 1.98 0 3 0 C3 0.66 3 1.32 3 2 C4.32 2.33 5.64 2.66 7 3 C7 4.65 7 6.3 7 8 C4 8 4 8 1.8125 6.25 C0 4 0 4 0 0 Z " fill="#989898" transform="translate(35,72)"/>
<path d="M0 0 C0.66 0 1.32 0 2 0 C2 1.32 2 2.64 2 4 C2.66 4.33 3.32 4.66 4 5 C3.34 5 2.68 5 2 5 C1.67 8.3 1.34 11.6 1 15 C-1.18085057 11.72872414 -1.24887859 10.72623277 -1.1875 6.9375 C-1.18105469 6.05964844 -1.17460938 5.18179688 -1.16796875 4.27734375 C-1 2 -1 2 0 0 Z " fill="#353535" transform="translate(64,122)"/>
<path d="M0 0 C1.3921875 0.3403125 1.3921875 0.3403125 2.8125 0.6875 C2.8125 1.3475 2.8125 2.0075 2.8125 2.6875 C3.4725 3.0175 4.1325 3.3475 4.8125 3.6875 C2.6875 4.875 2.6875 4.875 -0.1875 5.6875 C-3.5 4.3125 -3.5 4.3125 -6.1875 2.6875 C-4.14987265 -0.14253799 -3.59070275 -0.35202968 0 0 Z " fill="#808080" transform="translate(105.1875,131.3125)"/>
<path d="M0 0 C0.33 0.99 0.66 1.98 1 3 C1.886875 2.731875 2.77375 2.46375 3.6875 2.1875 C7 2 7 2 9.8125 4.3125 C12 7 12 7 13 9 C12.2265625 8.566875 12.2265625 8.566875 11.4375 8.125 C8.8708452 6.86248885 8.8708452 6.86248885 5.4375 6 C2 5 2 5 -1 3 C-0.67 2.01 -0.34 1.02 0 0 Z " fill="#858585" transform="translate(98,114)"/>
<path d="M0 0 C0.33 0.99 0.66 1.98 1 3 C0.01 4.485 0.01 4.485 -1 6 C-3.625 6.1875 -3.625 6.1875 -6 6 C-6 4.68 -6 3.36 -6 2 C-2.25 0 -2.25 0 0 0 Z " fill="#585858" transform="translate(86,43)"/>
<path d="M0 0 C1.16306443 3.54950034 0.92365049 6.55823948 0.5625 10.25 C0.40974609 11.86648437 0.40974609 11.86648437 0.25390625 13.515625 C0.17011719 14.33546875 0.08632813 15.1553125 0 16 C-1.96688454 12.300962 -2.77751294 9.22725413 -3 5 C-1.5625 2.0625 -1.5625 2.0625 0 0 Z " fill="#383838" transform="translate(44,61)"/>
<path d="M0 0 C-0.66 0.66 -1.32 1.32 -2 2 C-0.68 3.32 0.64 4.64 2 6 C-1 6 -1 6 -3 5 C-3 4.34 -3 3.68 -3 3 C-3.99 2.67 -4.98 2.34 -6 2 C-6.33 2.33 -6.66 2.66 -7 3 C-7.66 2.34 -8.32 1.68 -9 1 C-5.64919071 -1.10976881 -3.77897651 -1.0497157 0 0 Z " fill="#3B3B3B" transform="translate(76,69)"/>
<path d="M0 0 C1.32 0.66 2.64 1.32 4 2 C4 2.99 4 3.98 4 5 C3.01 5 2.02 5 1 5 C0.67 5.99 0.34 6.98 0 8 C-2.0625 8.6875 -2.0625 8.6875 -4 9 C-3 6 -3 6 -1 4 C-0.3574765 1.93125966 -0.3574765 1.93125966 0 0 Z " fill="#353535" transform="translate(62,40)"/>
<path d="M0 0 C3.3 0.99 6.6 1.98 10 3 C10 3.33 10 3.66 10 4 C6.37 4 2.74 4 -1 4 C-1 1 -1 1 0 0 Z " fill="#151515" transform="translate(114,146)"/>
<path d="M0 0 C4.40114397 0.50298788 6.71195019 2.08772731 10 5 C9.67 5.66 9.34 6.32 9 7 C8.01 7 7.02 7 6 7 C6 6.34 6 5.68 6 5 C5.38125 4.731875 4.7625 4.46375 4.125 4.1875 C2 3 2 3 0 0 Z " fill="#464646" transform="translate(124,134)"/>
<path d="M0 0 C1.98 0 3.96 0 6 0 C5.25 4.75 5.25 4.75 3 7 C0 3.375 0 3.375 0 0 Z " fill="#757575" transform="translate(89,111)"/>
<path d="M0 0 C1.32 0.33 2.64 0.66 4 1 C3.01 1.33 2.02 1.66 1 2 C1 2.66 1 3.32 1 4 C-1.375 5.6875 -1.375 5.6875 -4 7 C-4.66 6.67 -5.32 6.34 -6 6 C-5.67 5.34 -5.34 4.68 -5 4 C-5.99 3.67 -6.98 3.34 -8 3 C-5.36 3 -2.72 3 0 3 C0 2.01 0 1.02 0 0 Z " fill="#939393" transform="translate(88,56)"/>
<path d="M0 0 C0.33 1.32 0.66 2.64 1 4 C2.32 3.67 3.64 3.34 5 3 C4.01 4.485 4.01 4.485 3 6 C4.32 6.66 5.64 7.32 7 8 C4 9 4 9 1.8125 8.0625 C1.214375 7.711875 0.61625 7.36125 0 7 C0 5.68 0 4.36 0 3 C-0.66 2.67 -1.32 2.34 -2 2 C-1.34 2 -0.68 2 0 2 C0 1.34 0 0.68 0 0 Z " fill="#666666" transform="translate(84,101)"/>
<path d="M0 0 C4.31606218 2.99481865 4.31606218 2.99481865 6 5 C5.875 8.3125 5.875 8.3125 5 11 C4.34 11 3.68 11 3 11 C2.731875 9.906875 2.46375 8.81375 2.1875 7.6875 C1.12336261 4.38307337 0.65345336 3.05039578 -2 1 C-1.34 0.67 -0.68 0.34 0 0 Z " fill="#9A9A9A" transform="translate(77,80)"/>
<path d="M0 0 C0.66 0 1.32 0 2 0 C2.66 3.3 3.32 6.6 4 10 C3.01 9.67 2.02 9.34 1 9 C0.234375 7.1875 0.234375 7.1875 -0.25 5 C-0.42015625 4.278125 -0.5903125 3.55625 -0.765625 2.8125 C-0.84296875 2.214375 -0.9203125 1.61625 -1 1 C-0.67 0.67 -0.34 0.34 0 0 Z " fill="#2E2E2E" transform="translate(48,37)"/>
<path d="M0 0 C1.32 0.33 2.64 0.66 4 1 C2.71480435 3.86697492 1.42870746 5.97607712 -1 8 C-1.66 8 -2.32 8 -3 8 C-1.125 2.25 -1.125 2.25 0 0 Z " fill="#393939" transform="translate(43,26)"/>
<path d="M0 0 C0.66 0.33 1.32 0.66 2 1 C1.01 3.97 0.02 6.94 -1 10 C-1.66 10 -2.32 10 -3 10 C-2.25 3.375 -2.25 3.375 0 0 Z " fill="#3A3A3A" transform="translate(143,140)"/>
<path d="M0 0 C2.475 0.99 2.475 0.99 5 2 C5 2.66 5 3.32 5 4 C5.66 4.33 6.32 4.66 7 5 C5.68 5.33 4.36 5.66 3 6 C3 5.34 3 4.68 3 4 C1.68 4.33 0.36 4.66 -1 5 C-0.67 3.35 -0.34 1.7 0 0 Z " fill="#3D3D3D" transform="translate(100,134)"/>
<path d="M0 0 C1.65 0.33 3.3 0.66 5 1 C5 2.32 5 3.64 5 5 C3.35 5.33 1.7 5.66 0 6 C-1 3 -1 3 0 0 Z " fill="#3D3D3D" transform="translate(62,90)"/>
<path d="M0 0 C3.375 -0.125 3.375 -0.125 7 0 C7.66 0.66 8.32 1.32 9 2 C8.34 2 7.68 2 7 2 C6.67 2.66 6.34 3.32 6 4 C5.01 3.67 4.02 3.34 3 3 C1.68 3 0.36 3 -1 3 C-0.67 2.01 -0.34 1.02 0 0 Z " fill="#ACACAC" transform="translate(80,64)"/>
<path d="M0 0 C1.65 0 3.3 0 5 0 C4.44271087 3.34373475 3.64826111 6.03312999 2 9 C1.34 8.67 0.68 8.34 0 8 C0.66 6.68 1.32 5.36 2 4 C1.34 3.67 0.68 3.34 0 3 C0 2.01 0 1.02 0 0 Z " fill="#B9B9B9" transform="translate(123,45)"/>
<path d="M0 0 C1.98 0.495 1.98 0.495 4 1 C4 2.32 4 3.64 4 5 C2.35 5.33 0.7 5.66 -1 6 C-0.67 4.02 -0.34 2.04 0 0 Z " fill="#8D8D8D" transform="translate(74,58)"/>
<path d="M0 0 C0.33 0 0.66 0 1 0 C1.33 3.63 1.66 7.26 2 11 C0.68 10.67 -0.64 10.34 -2 10 C-2 9.01 -2 8.02 -2 7 C-1.34 7 -0.68 7 0 7 C0 4.69 0 2.38 0 0 Z " fill="#636363" transform="translate(95,49)"/>
<path d="M0 0 C0.33 0.66 0.66 1.32 1 2 C2.32 1.67 3.64 1.34 5 1 C4.34 2.32 3.68 3.64 3 5 C2.01 5 1.02 5 0 5 C0 5.66 0 6.32 0 7 C-0.66 7 -1.32 7 -2 7 C-1.125 2.25 -1.125 2.25 0 0 Z " fill="#2E2E2E" transform="translate(37,39)"/>
<path d="M0 0 C0.33 1.32 0.66 2.64 1 4 C0.360625 4.433125 -0.27875 4.86625 -0.9375 5.3125 C-3.26746003 6.91239177 -3.26746003 6.91239177 -4 10 C-4.66 10 -5.32 10 -6 10 C-5.34 7.69 -4.68 5.38 -4 3 C-2.68 2.67 -1.36 2.34 0 2 C0 1.34 0 0.68 0 0 Z " fill="#A8A8A8" transform="translate(62,33)"/>
<path d="M0 0 C1.67542976 0.28604898 3.34385343 0.61781233 5 1 C4.34 2.65 3.68 4.3 3 6 C2.01 6 1.02 6 0 6 C-0.38218767 4.34385343 -0.71395102 2.67542976 -1 1 C-0.67 0.67 -0.34 0.34 0 0 Z " fill="#4D4D4D" transform="translate(54,31)"/>
<path d="M0 0 C0.99 0 1.98 0 3 0 C3 1.32 3 2.64 3 4 C1.125 5.0625 1.125 5.0625 -1 6 C-1.66 5.67 -2.32 5.34 -3 5 C-2.67 4.01 -2.34 3.02 -2 2 C-1.34 2 -0.68 2 0 2 C0 1.34 0 0.68 0 0 Z " fill="#C8C8C8" transform="translate(117,109)"/>
<path d="M0 0 C2.97 0.99 5.94 1.98 9 3 C8.01 3.495 8.01 3.495 7 4 C6.67 4.99 6.34 5.98 6 7 C4.68 6.34 3.36 5.68 2 5 C2.99 5 3.98 5 5 5 C3.74458443 2.48916886 2.49936512 2.12874554 0 1 C0 0.67 0 0.34 0 0 Z " fill="#7B7B7B" transform="translate(70,89)"/>
<path d="M0 0 C1.42944945 2.35438733 2.08661261 3.48032433 1.625 6.25 C1.41875 6.8275 1.2125 7.405 1 8 C0.01 7.67 -0.98 7.34 -2 7 C-2.875 5.125 -2.875 5.125 -3 3 C-1.5625 1.25 -1.5625 1.25 0 0 Z " fill="#606060" transform="translate(103,31)"/>
<path d="M0 0 C0 1.65 0 3.3 0 5 C-2.31 5 -4.62 5 -7 5 C-2.16129032 0 -2.16129032 0 0 0 Z " fill="#B6B6B6" transform="translate(139,145)"/>
<path d="M0 0 C1.32 0.33 2.64 0.66 4 1 C4.33 2.65 4.66 4.3 5 6 C4.01 6.66 3.02 7.32 2 8 C0.38431014 5.07156213 0 3.37503263 0 0 Z " fill="#575757" transform="translate(99,119)"/>
<path d="M0 0 C0.99 0.33 1.98 0.66 3 1 C3 4 3 7 3 10 C2.01 9.34 1.02 8.68 0 8 C-0.40843923 5.28796348 -0.13336867 2.7562858 0 0 Z " fill="#C6C6C6" transform="translate(85,88)"/>
<path d="M0 0 C0.33 0 0.66 0 1 0 C1 1.65 1 3.3 1 5 C1.66 5 2.32 5 3 5 C2.34 6.98 1.68 8.96 1 11 C0.34 11 -0.32 11 -1 11 C-0.67 7.37 -0.34 3.74 0 0 Z " fill="#565656" transform="translate(36,80)"/>
<path d="M0 0 C0 0.99 0 1.98 0 3 C-3.96 4.98 -3.96 4.98 -8 7 C-8 5.68 -8 4.36 -8 3 C-7.01 3.33 -6.02 3.66 -5 4 C-4.67 3.34 -4.34 2.68 -4 2 C-1.9375 0.875 -1.9375 0.875 0 0 Z " fill="#707070" transform="translate(57,43)"/>
<path d="M0 0 C0.33 0.99 0.66 1.98 1 3 C1.66 3 2.32 3 3 3 C3 3.99 3 4.98 3 6 C1.35 5.67 -0.3 5.34 -2 5 C-1.125 1.125 -1.125 1.125 0 0 Z " fill="#272727" transform="translate(70,123)"/>
<path d="M0 0 C1.32 0.33 2.64 0.66 4 1 C4.66 3.31 5.32 5.62 6 8 C4.68 8.33 3.36 8.66 2 9 C2.33 6.69 2.66 4.38 3 2 C2.01 1.67 1.02 1.34 0 1 C0 0.67 0 0.34 0 0 Z " fill="#696969" transform="translate(100,118)"/>
<path d="M0 0 C0.66 0 1.32 0 2 0 C2.33 1.65 2.66 3.3 3 5 C1.02 5 -0.96 5 -3 5 C-3 4.34 -3 3.68 -3 3 C-2.34 3 -1.68 3 -1 3 C-0.67 2.01 -0.34 1.02 0 0 Z " fill="#424242" transform="translate(79,98)"/>
<path d="M0 0 C2.4375 0.375 2.4375 0.375 5 1 C5.33 1.66 5.66 2.32 6 3 C3.69 3.33 1.38 3.66 -1 4 C-0.67 2.68 -0.34 1.36 0 0 Z " fill="#1A1A1A" transform="translate(63,70)"/>
<path d="M0 0 C1.485 0.99 1.485 0.99 3 2 C2.67 3.98 2.34 5.96 2 8 C1.01 8 0.02 8 -1 8 C-0.67 5.36 -0.34 2.72 0 0 Z " fill="#696969" transform="translate(70,54)"/>
<path d="M0 0 C-0.99 1.485 -0.99 1.485 -2 3 C-3.9453125 3.29296875 -3.9453125 3.29296875 -6.125 3.1875 C-7.40375 3.125625 -8.6825 3.06375 -10 3 C-4.375 -1.3125 -4.375 -1.3125 0 0 Z " fill="#909090" transform="translate(112,39)"/>
<path d="M0 0 C2.97 0.495 2.97 0.495 6 1 C6 2.32 6 3.64 6 5 C4.68 5.33 3.36 5.66 2 6 C2.33 4.68 2.66 3.36 3 2 C2.01 1.67 1.02 1.34 0 1 C0 0.67 0 0.34 0 0 Z " fill="#8B8B8B" transform="translate(56,30)"/>
<path d="M0 0 C2.97 0.495 2.97 0.495 6 1 C5.67 1.66 5.34 2.32 5 3 C2.6859378 3.73075648 0.35171131 4.40138258 -2 5 C-2 4.01 -2 3.02 -2 2 C-1.34 2 -0.68 2 0 2 C0 1.34 0 0.68 0 0 Z " fill="#2F2F2F" transform="translate(53,18)"/>
<path d="M0 0 C0.12375 0.639375 0.2475 1.27875 0.375 1.9375 C0.684375 2.9584375 0.684375 2.9584375 1 4 C1.66 4.33 2.32 4.66 3 5 C2.01 5.495 2.01 5.495 1 6 C0.67 6.99 0.34 7.98 0 9 C-1.65 8.67 -3.3 8.34 -5 8 C-4.360625 7.608125 -3.72125 7.21625 -3.0625 6.8125 C-0.56221181 4.61527704 -0.35049575 3.24208567 0 0 Z " fill="#636363" transform="translate(124,140)"/>
<path d="M0 0 C1.89213369 2.38573379 3.02391783 4.07175348 4 7 C3.34 7 2.68 7 2 7 C1.67 6.34 1.34 5.68 1 5 C-1.02463255 4.34786708 -1.02463255 4.34786708 -3 4 C-2.67 3.01 -2.34 2.02 -2 1 C-1.34 0.67 -0.68 0.34 0 0 Z " fill="#525252" transform="translate(91,131)"/>
<path d="M0 0 C2.0625 1.6875 2.0625 1.6875 4 4 C3.75 6.75 3.75 6.75 3 9 C2.01 9.33 1.02 9.66 0 10 C0 9.34 0 8.68 0 8 C0.66 8 1.32 8 2 8 C1.67 7.4225 1.34 6.845 1 6.25 C0 4 0 4 0 0 Z " fill="#CECECE" transform="translate(110,116)"/>
<path d="M0 0 C0.66 0.33 1.32 0.66 2 1 C1.1875 2.9375 1.1875 2.9375 0 5 C-0.99 5.33 -1.98 5.66 -3 6 C-3 4.35 -3 2.7 -3 1 C-2.01 0.67 -1.02 0.34 0 0 Z " fill="#111111" transform="translate(69,120)"/>
<path d="M0 0 C0.33 0 0.66 0 1 0 C1 2.97 1 5.94 1 9 C0.34 9 -0.32 9 -1 9 C-1 8.34 -1 7.68 -1 7 C-1.66 6.67 -2.32 6.34 -3 6 C-1.125 1.125 -1.125 1.125 0 0 Z " fill="#282828" transform="translate(67,95)"/>
<path d="M0 0 C1.98 0 3.96 0 6 0 C5.01 0.495 5.01 0.495 4 1 C4 1.66 4 2.32 4 3 C2.68 3 1.36 3 0 3 C0 3.66 0 4.32 0 5 C-0.66 4.67 -1.32 4.34 -2 4 C-2 3.34 -2 2.68 -2 2 C-1.34 2 -0.68 2 0 2 C0 1.34 0 0.68 0 0 Z " fill="#747474" transform="translate(82,29)"/>
<path d="M0 0 C1.125 3.75 1.125 3.75 0 6 C-0.598125 5.54625 -1.19625 5.0925 -1.8125 4.625 C-3.50590652 3.36704087 -5.24477086 2.17015276 -7 1 C-3.535 0.505 -3.535 0.505 0 0 Z " fill="#494949" transform="translate(100,140)"/>
<path d="M0 0 C2.375 -0.1875 2.375 -0.1875 5 0 C5.66 0.99 6.32 1.98 7 3 C4.08517222 3.80967438 2.53886783 4.21845993 -0.3125 3.0625 C-0.869375 2.711875 -1.42625 2.36125 -2 2 C-1.34 2 -0.68 2 0 2 C0 1.34 0 0.68 0 0 Z " fill="#5D5D5D" transform="translate(98,129)"/>
<path d="M0 0 C2.1385485 2.1385485 2.42655063 3.13275314 3 6 C0.03 5.505 0.03 5.505 -3 5 C-2.67 4.01 -2.34 3.02 -2 2 C-1.34 2 -0.68 2 0 2 C0 1.34 0 0.68 0 0 Z " fill="#515151" transform="translate(87,109)"/>
<path d="M0 0 C0.33 0.99 0.66 1.98 1 3 C2.98 2.34 4.96 1.68 7 1 C7 1.99 7 2.98 7 4 C4.36 4 1.72 4 -1 4 C-1.33 3.01 -1.66 2.02 -2 1 C-1.34 0.67 -0.68 0.34 0 0 Z " fill="#616161" transform="translate(81,55)"/>
<path d="M0 0 C1.5 1.375 1.5 1.375 3 3 C3 3.66 3 4.32 3 5 C2.34 5 1.68 5 1 5 C0.67 5.99 0.34 6.98 0 8 C-0.79953138 4.71303767 -1.09658936 3.28976808 0 0 Z " fill="#8C8C8C" transform="translate(99,35)"/>
<path d="M0 0 C2.475 0.99 2.475 0.99 5 2 C5 3.32 5 4.64 5 6 C4.34 6 3.68 6 3 6 C3 5.34 3 4.68 3 4 C2.01 4.33 1.02 4.66 0 5 C-0.33 4.34 -0.66 3.68 -1 3 C-0.67 2.01 -0.34 1.02 0 0 Z " fill="#8C8C8C" transform="translate(102,21)"/>
<path d="M0 0 C0.33 0 0.66 0 1 0 C1 1.98 1 3.96 1 6 C-0.32 6 -1.64 6 -3 6 C-1.125 1.125 -1.125 1.125 0 0 Z " fill="#2E2E2E" transform="translate(149,144)"/>
<path d="M0 0 C1.32 0.33 2.64 0.66 4 1 C3.34 1.66 2.68 2.32 2 3 C2.33 3.66 2.66 4.32 3 5 C1.35 4.67 -0.3 4.34 -2 4 C-1.34 2.68 -0.68 1.36 0 0 Z " fill="#2B2B2B" transform="translate(118,141)"/>
<path d="M0 0 C1.32 0.33 2.64 0.66 4 1 C4 2.32 4 3.64 4 5 C2.68 4.67 1.36 4.34 0 4 C0 2.68 0 1.36 0 0 Z " fill="#727272" transform="translate(69,74)"/>
<path d="M0 0 C1.9451 2.91765 2.45276317 4.62537285 3 8 C2.01 8 1.02 8 0 8 C-0.79953138 4.71303767 -1.09658936 3.28976808 0 0 Z " fill="#272727" transform="translate(29,56)"/>
<path d="M0 0 C-0.33 1.65 -0.66 3.3 -1 5 C-2.32 4.34 -3.64 3.68 -5 3 C-2.25 0 -2.25 0 0 0 Z " fill="#1D1D1D" transform="translate(88,52)"/>
<path d="M0 0 C0.5534764 2.07553648 1 3.84365964 1 6 C-0.98 6 -2.96 6 -5 6 C-5 5.34 -5 4.68 -5 4 C-3.35 3.67 -1.7 3.34 0 3 C0 2.01 0 1.02 0 0 Z " fill="#7A7A7A" transform="translate(107,35)"/>
<path d="M0 0 C0.99 0.33 1.98 0.66 3 1 C3 2.32 3 3.64 3 5 C2.34 5 1.68 5 1 5 C0.67 6.32 0.34 7.64 0 9 C-1.125 3.375 -1.125 3.375 0 0 Z " fill="#777777" transform="translate(50,33)"/>
<path d="M0 0 C2.125 0.9375 2.125 0.9375 4 2 C4 2.99 4 3.98 4 5 C2.35 5 0.7 5 -1 5 C-0.34 4.67 0.32 4.34 1 4 C1 3.34 1 2.68 1 2 C0.01 1.67 -0.98 1.34 -2 1 C-1.34 0.67 -0.68 0.34 0 0 Z " fill="#484848" transform="translate(57,25)"/>
</svg>
